<?xml version="1.0" encoding="UTF-8"?>
<svg version="1.1" xmlns="http://www.w3.org/2000/svg" width="512" height="512">
<path d="M0 0 C4.97271143 2.30875888 7.32531791 5.27771105 10 10 C10.45410156 13.43505859 10.45410156 13.43505859 10.390625 17.1484375 C10.38496521 17.80582916 10.37930542 18.46322083 10.37347412 19.14053345 C10.35126275 21.21946191 10.3011042 23.29660163 10.25 25.375 C10.22991489 26.79294368 10.21166765 28.21091465 10.1953125 29.62890625 C10.15145067 33.08650877 10.08253437 36.54307951 10 40 C22.11984589 40.00837295 34.23916626 39.98390833 46.35885715 39.9197216 C51.9891043 39.89088818 57.61894216 39.8725569 63.24926758 39.87988281 C68.70261815 39.88656439 74.15516624 39.86349855 79.60835075 39.82144547 C81.66867139 39.81046909 83.72907501 39.8094706 85.7894001 39.81957626 C100.24136407 39.88126174 112.88179156 37.73700007 126.73182297 33.63136196 C132.4350676 32.04382639 138.00106291 31.76104679 143.875 31.6875 C144.63941406 31.65849609 145.40382813 31.62949219 146.19140625 31.59960938 C153.0372895 31.52406058 158.08130523 33.44232845 163.2421875 37.96484375 C163.78101563 38.61582031 164.31984375 39.26679688 164.875 39.9375 C165.42929687 40.58589844 165.98359375 41.23429687 166.5546875 41.90234375 C171.03412097 48.40357557 170.67463728 55.37140917 170 63 C168.31914417 69.65959333 163.53621678 74.18547447 158 78 C154.38103212 79.73544614 151.0935341 80.34349142 147.125 80.8125 C136.56324769 82.56420526 132.55813503 88.61339765 126.4140625 96.83203125 C120.64345844 104.40478189 115.06335607 108.97888131 106 112 C102.96929832 112.11237205 99.96102379 112.16772847 96.9296875 112.17700195 C96.0008223 112.18357315 95.07195709 112.19014435 94.11494446 112.19691467 C91.03496214 112.21665357 87.95502872 112.22831467 84.875 112.23828125 C83.82132233 112.24235678 82.76764465 112.2464323 81.68203735 112.25063133 C76.09971309 112.27149951 70.51741343 112.28579522 64.93505859 112.29516602 C59.18642898 112.30620219 53.43818946 112.34056785 47.68969727 112.38033772 C43.25595412 112.40657308 38.82230269 112.41486424 34.38848877 112.41844749 C32.27074565 112.42329944 30.15300624 112.43487338 28.03533936 112.45348549 C12.78545467 112.57913156 0.59410279 112.06809435 -11 101 C-21.20366758 90.31140564 -22.61881517 78.84831971 -22.53125 64.60546875 C-22.53395098 63.04372415 -22.53783841 61.48198121 -22.54284668 59.92024231 C-22.54870463 56.66842426 -22.54029404 53.41704929 -22.52148438 50.1652832 C-22.49860082 46.00803583 -22.5118997 41.85181633 -22.53577423 37.69460583 C-22.55025209 34.47827957 -22.54561888 31.26219589 -22.53526306 28.0458622 C-22.53260617 26.5129312 -22.53582884 24.97997776 -22.54518127 23.44707298 C-22.55539132 21.30551327 -22.53979167 19.16560702 -22.51757812 17.02416992 C-22.51439575 15.80936447 -22.51121338 14.59455902 -22.50793457 13.34294128 C-21.72753065 8.20675911 -19.19909745 5.13914258 -15.5 1.625 C-10.33499991 -0.77303575 -5.5997712 -0.75381535 0 0 Z " fill="#000000" transform="translate(294,384)"/>
<path d="M0 0 C4.97649017 2.31051329 7.31107177 5.28376878 10 10 C10.50793457 13.34294128 10.50793457 13.34294128 10.51757812 17.02416992 C10.5245874 17.69988037 10.53159668 18.37559082 10.53881836 19.07177734 C10.55633096 21.29176738 10.5447945 23.5104671 10.53125 25.73046875 C10.53394846 27.28738141 10.53783381 28.84429242 10.54284668 30.40119934 C10.54873392 33.6619168 10.54021013 36.92219509 10.52148438 40.18286133 C10.49878972 44.3341593 10.5117615 48.48441725 10.53577423 52.63567638 C10.55033497 55.85221467 10.54557805 59.06851284 10.53526306 62.28505898 C10.53261906 63.81385741 10.53578237 65.34267859 10.54518127 66.87145042 C10.60988541 80.36227451 8.55118823 90.99489391 -1 101 C-13.37381741 112.81243439 -26.82589609 112.60325868 -42.9765625 112.53125 C-45.11404598 112.53394888 -47.25152826 112.5378346 -49.38900757 112.54284668 C-53.85223161 112.54872048 -58.31513388 112.54024548 -62.77832031 112.52148438 C-68.48216093 112.49866861 -74.18524963 112.51184841 -79.88906288 112.53577423 C-84.29702363 112.55026582 -88.70480766 112.54561124 -93.1127739 112.53526306 C-95.2153978 112.53260651 -97.31803807 112.53582754 -99.42064285 112.54518127 C-102.36370294 112.5554054 -105.30556379 112.53976505 -108.24853516 112.51757812 C-109.53460915 112.52972351 -109.53460915 112.52972351 -110.84666443 112.54211426 C-119.63870578 112.42008353 -126.48965086 109.1098126 -132.890625 103.1953125 C-136.34801619 99.59706464 -139.48138771 95.75336262 -142.60546875 91.8671875 C-148.00550966 85.40123314 -151.98127216 81.98520046 -160.3125 80.625 C-167.47116687 79.44257343 -172.53000623 77.17721787 -177.25 71.5625 C-177.72953125 71.00691406 -178.2090625 70.45132813 -178.703125 69.87890625 C-183.09970307 63.50916513 -182.65882148 56.44975061 -182 49 C-180.31914417 42.34040667 -175.53621678 37.81452553 -170 34 C-165.70147889 31.74946539 -161.51103357 31.61528778 -156.75 31.625 C-155.96222168 31.62588623 -155.17444336 31.62677246 -154.36279297 31.62768555 C-145.20986163 31.80745897 -136.41203355 33.86678024 -127.73867798 36.75231934 C-117.28156741 39.90135705 -106.6413433 39.47941844 -95.828125 39.51171875 C-93.69292178 39.52858928 -91.55772836 39.54674266 -89.42254639 39.56611633 C-83.8397528 39.61336468 -78.25699892 39.64333628 -72.67407227 39.66955566 C-66.96232263 39.6994889 -61.25070945 39.74597503 -55.5390625 39.79101562 C-44.35944676 39.87676206 -33.17980271 39.94423406 -22 40 C-22.02094727 39.12263184 -22.04189453 38.24526367 -22.06347656 37.34130859 C-22.131926 34.06483317 -22.18193051 30.78912488 -22.21972656 27.51220703 C-22.23975843 26.09802205 -22.26699248 24.68391903 -22.30175781 23.27001953 C-22.35065489 21.22928581 -22.37305123 19.1896531 -22.390625 17.1484375 C-22.41157227 15.92302246 -22.43251953 14.69760742 -22.45410156 13.43505859 C-21.76361343 8.21184997 -19.24659426 5.18426454 -15.5 1.625 C-10.33499991 -0.77303575 -5.5997712 -0.75381535 0 0 Z " fill="#000000" transform="translate(246,384)"/>
<path d="M0 0 C0.65143927 -0.00453111 1.30287854 -0.00906223 1.97405839 -0.01373065 C4.14328111 -0.02632741 6.31225124 -0.02475737 8.48150635 -0.02310181 C10.04250407 -0.0290901 11.60349884 -0.03589634 13.16448975 -0.04345703 C17.39609179 -0.06109556 21.6276129 -0.06581156 25.85924816 -0.0670886 C28.50635553 -0.0685122 31.15344246 -0.07278578 33.80054474 -0.07808304 C43.04512331 -0.09657756 52.28964427 -0.10475454 61.53424072 -0.10317993 C70.13549164 -0.10197931 78.7364913 -0.12306755 87.33767867 -0.15466726 C94.73493427 -0.18087004 102.13210803 -0.19154552 109.52940965 -0.19026911 C113.94179259 -0.18976057 118.35395226 -0.19538355 122.76628876 -0.21662521 C126.91966475 -0.23607475 131.07260606 -0.23608658 135.22599792 -0.22159195 C136.74406321 -0.21951091 138.26215617 -0.22416247 139.78017426 -0.23631287 C150.83179541 -0.31899011 160.35614104 0.73381673 168.74029541 8.56430054 C176.13395832 16.78786439 177.85344608 25.50188189 177.58404541 36.27914429 C177.10971906 44.66483884 173.49685018 51.67036254 167.27154541 57.26742554 C157.94154887 64.28358294 148.59746849 65.18117033 137.27154541 64.26742554 C133.89725823 63.39557759 131.20494375 62.12807283 128.27154541 60.26742554 C127.62701416 59.88199585 126.98248291 59.49656616 126.31842041 59.09945679 C123.07828574 56.99609205 121.4976909 55.71858295 119.71295166 52.15805054 C116.96409294 48.90340182 116.52195662 48.81560354 112.50592041 48.46273804 C110.67841271 48.4097668 108.84981347 48.38730434 107.02154541 48.39242554 C106.08568604 48.37180054 105.14982666 48.35117554 104.18560791 48.32992554 C101.88130606 48.28289897 99.57632315 48.27167789 97.27154541 48.26742554 C97.27154541 52.55742554 97.27154541 56.84742554 97.27154541 61.26742554 C95.37404541 60.79305054 93.47654541 60.31867554 91.52154541 59.82992554 C76.7413456 56.47442072 63.92236006 57.731022 49.27154541 61.26742554 C49.27154541 56.97742554 49.27154541 52.68742554 49.27154541 48.26742554 C46.0377241 48.2463681 42.81668682 48.27399749 39.58404541 48.32992554 C38.21602783 48.31348999 38.21602783 48.31348999 36.82037354 48.29672241 C31.80641909 48.31195225 31.80641909 48.31195225 27.66729736 50.77157593 C26.3830825 52.60004075 26.3830825 52.60004075 25.2991333 54.53231812 C23.8939464 56.90501075 22.14334404 58.11860466 19.83404541 59.57992554 C19.11345947 60.05043335 18.39287354 60.52094116 17.65045166 61.00570679 C9.3829048 65.39062901 -0.70123761 65.6397285 -9.74798584 63.57992554 C-18.51708351 60.34707847 -24.62240654 54.63330622 -28.72845459 46.26742554 C-32.07581513 37.95187724 -32.22365466 27.16846821 -29.10345459 18.70492554 C-25.02918888 10.21449769 -18.78741387 4.60960122 -10.0161705 1.21895409 C-6.51171523 0.20469697 -3.64284185 0.01051311 0 0 Z " fill="#000000" transform="translate(182.72845458984375,19.732574462890625)"/>
<path d="M0 0 C2.44225447 1.66159248 4.74768159 3.38773224 7.0390625 5.25 C7.87050781 5.87261719 8.70195312 6.49523437 9.55859375 7.13671875 C19.0318321 15.20761946 26.19095739 28.73075978 27.30062866 41.18585205 C27.38353447 44.40159826 27.37699257 47.60383066 27.33203125 50.8203125 C27.32778641 51.98255341 27.32354156 53.14479431 27.31916809 54.34225464 C27.30250176 58.02008153 27.26487144 61.69734136 27.2265625 65.375 C27.21150012 67.88280453 27.19781445 70.39061774 27.18554688 72.8984375 C27.15263776 79.0158154 27.10255966 85.13286717 27.0390625 91.25 C25.35586914 91.00650314 25.35586914 91.00650314 23.63867188 90.75808716 C18.89627313 90.16873855 14.21906841 90.10932119 9.4453125 90.12060547 C8.52065186 90.11885315 7.59599121 90.11710083 6.64331055 90.11529541 C3.6085417 90.11091991 0.57383187 90.11379969 -2.4609375 90.1171875 C-4.5826824 90.11651323 -6.70442723 90.11554217 -8.82617188 90.11428833 C-13.26433043 90.11281718 -17.7024688 90.11494717 -22.140625 90.11962891 C-27.8163819 90.12532582 -33.49209151 90.1220437 -39.16784668 90.11605644 C-43.54655307 90.1124351 -47.92524834 90.11359665 -52.30395508 90.11618423 C-54.39624029 90.11684915 -56.48852653 90.11604037 -58.58081055 90.11370468 C-61.50962992 90.11115231 -64.43837372 90.11505509 -67.3671875 90.12060547 C-68.22352783 90.11858124 -69.07986816 90.11655701 -69.9621582 90.11447144 C-70.76935303 90.11729126 -71.57654785 90.12011108 -72.40820312 90.12301636 C-73.4434613 90.1235819 -73.4434613 90.1235819 -74.49963379 90.12415886 C-78.00229556 90.30324239 -81.48078395 90.81498081 -84.9609375 91.25 C-84.9609375 83.99 -84.9609375 76.73 -84.9609375 69.25 C-82.96289062 69.18941406 -80.96484375 69.12882812 -78.90625 69.06640625 C-76.97345919 69.00383389 -75.04066928 68.94122896 -73.10791016 68.87768555 C-71.10198943 68.81301749 -69.09591522 68.75316894 -67.08984375 68.69335938 C-65.83300781 68.65146484 -64.57617188 68.60957031 -63.28125 68.56640625 C-62.11867676 68.52974854 -60.95610352 68.49309082 -59.75830078 68.45532227 C-57.0073874 68.43178341 -57.0073874 68.43178341 -54.9609375 67.25 C-54.9609375 65.93 -54.9609375 64.61 -54.9609375 63.25 C-57.75213841 61.85439955 -60.16299442 62.03191712 -63.28125 61.93359375 C-64.53808594 61.89169922 -65.79492188 61.84980469 -67.08984375 61.80664062 C-68.40855469 61.76732422 -69.72726563 61.72800781 -71.0859375 61.6875 C-72.42579501 61.64430488 -73.76563906 61.60069027 -75.10546875 61.55664062 C-78.39051565 61.45029019 -81.67564031 61.34826192 -84.9609375 61.25 C-85.79368629 36.04974059 -85.79368629 36.04974059 -80.9609375 26.25 C-80.50203125 25.28964844 -80.043125 24.32929687 -79.5703125 23.33984375 C-71.85480373 8.25399371 -59.66085846 -0.32379602 -43.7890625 -5.85546875 C-29.15360965 -9.27538579 -12.98077044 -7.67201208 0 0 Z M-34.9609375 62.25 C-35.2909375 63.9 -35.6209375 65.55 -35.9609375 67.25 C-33.4859375 67.745 -33.4859375 67.745 -30.9609375 68.25 C-30.6309375 66.6 -30.3009375 64.95 -29.9609375 63.25 C-31.6109375 62.92 -33.2609375 62.59 -34.9609375 62.25 Z " fill="#000000" transform="translate(284.9609375,90.75)"/>
<path d="M0 0 C1.06077255 -0.00671722 2.1215451 -0.01343445 3.21446228 -0.02035522 C6.72008961 -0.03934785 10.2255256 -0.04326016 13.73120117 -0.04541016 C16.17111795 -0.05183742 18.61103395 -0.05856573 21.0509491 -0.06558228 C26.1661457 -0.07755838 31.28127474 -0.08126277 36.39648438 -0.08007812 C42.94350949 -0.07987497 49.49010035 -0.10717221 56.03702259 -0.14162254 C61.07714315 -0.16388623 66.11715914 -0.16791581 71.15732384 -0.16685867 C73.5705992 -0.16921561 75.9838774 -0.17804428 78.39710426 -0.19352341 C81.77676205 -0.21317076 85.1554826 -0.2073493 88.53515625 -0.1953125 C89.52712006 -0.20655151 90.51908386 -0.21779053 91.54110718 -0.22937012 C98.82624198 -0.16360776 104.17378339 1.40933061 109.70385742 6.25537109 C110.24268555 6.90634766 110.78151367 7.55732422 111.33666992 8.22802734 C111.8909668 8.87642578 112.44526367 9.52482422 113.01635742 10.19287109 C117.49579089 16.69410291 117.13630721 23.66193651 116.46166992 31.29052734 C114.7808141 37.95012068 109.9978867 42.47600182 104.46166992 46.29052734 C99.51285216 48.98056911 94.40358269 48.5860316 88.92333984 48.58105469 C87.86256729 48.58777191 86.80179474 48.59448914 85.70887756 48.60140991 C82.20325023 48.62040254 78.69781425 48.62431485 75.19213867 48.62646484 C72.7522219 48.63289211 70.3123059 48.63962042 67.87239075 48.64663696 C62.75719415 48.65861307 57.6420651 48.66231746 52.52685547 48.66113281 C45.97983035 48.66092966 39.43323949 48.6882269 32.88631725 48.72267723 C27.84619669 48.74494092 22.8061807 48.7489705 17.76601601 48.74791336 C15.35274065 48.7502703 12.93946245 48.75909897 10.52623558 48.77457809 C7.14657779 48.79422544 3.76785724 48.78840398 0.38818359 48.77636719 C-1.09976212 48.79322571 -1.09976212 48.79322571 -2.61776733 48.8104248 C-9.90290213 48.74466245 -15.25044355 47.17172408 -20.78051758 42.32568359 C-21.3193457 41.67470703 -21.85817383 41.02373047 -22.41333008 40.35302734 C-22.96762695 39.70462891 -23.52192383 39.05623047 -24.09301758 38.38818359 C-28.57245105 31.88695177 -28.21296736 24.91911818 -27.53833008 17.29052734 C-25.85747425 10.63093401 -21.07454686 6.10505287 -15.53833008 2.29052734 C-10.58951231 -0.39951442 -5.48024285 -0.00497691 0 0 Z " fill="#000000" transform="translate(211.538330078125,187.70947265625)"/>
<path d="M0 0 C15.64237086 11.28906953 31.60675155 34.9950722 35 54 C36.45176961 66.39150363 35.25510605 77.41689346 27.8125 87.75 C21.0000775 95.8352318 12.69506924 102.06304017 1.92919922 103.22314453 C-10.98211062 104.11871049 -21.75046854 102.55271344 -31.93359375 93.97265625 C-40.37341908 85.91573414 -44.96109509 77.28939286 -45.52197266 65.56933594 C-45.87264841 45.50054271 -35.90338895 28.73349259 -23 14 C-22.55833496 13.49275391 -22.11666992 12.98550781 -21.66162109 12.46289062 C-20.22280728 10.81937352 -18.77093839 9.18861719 -17.3125 7.5625 C-16.86084473 7.05372314 -16.40918945 6.54494629 -15.94384766 6.02075195 C-10.87292688 0.47809598 -7.59662949 -2.06948539 0 0 Z " fill="#000000" transform="translate(261,253)"/>
<path d="M0 0 C4.64033987 2.15444351 8.03598049 5.2220809 10 10 C10.54851096 14.13732054 10.46541986 18.23134214 10.390625 22.3984375 C10.38496521 23.58853424 10.37930542 24.77863098 10.37347412 26.00479126 C10.35113451 29.79527486 10.30093963 33.58480345 10.25 37.375 C10.22993201 39.94920507 10.21168177 42.523425 10.1953125 45.09765625 C10.15468424 51.3990989 10.07638201 57.69848405 10 64 C-0.56 64 -11.12 64 -22 64 C-22.09189302 56.41882578 -22.17151794 48.83958846 -22.21972656 41.25830078 C-22.23982563 38.68010912 -22.26710941 36.10196296 -22.30175781 33.52392578 C-22.35034847 29.81531539 -22.37298658 26.10730844 -22.390625 22.3984375 C-22.41127014 21.24822113 -22.43191528 20.09800476 -22.45318604 18.91293335 C-22.45494774 12.61147807 -22.27883437 8.76395187 -18 4 C-12.72867143 -1.00776214 -6.89190982 -0.92775709 0 0 Z " fill="#000000" transform="translate(358,352)"/>
<path d="M0 0 C4.64033987 2.15444351 8.03598049 5.2220809 10 10 C10.54851096 14.13732054 10.46541986 18.23134214 10.390625 22.3984375 C10.38496521 23.58853424 10.37930542 24.77863098 10.37347412 26.00479126 C10.35113451 29.79527486 10.30093963 33.58480345 10.25 37.375 C10.22993201 39.94920507 10.21168177 42.523425 10.1953125 45.09765625 C10.15468424 51.3990989 10.07638201 57.69848405 10 64 C-0.56 64 -11.12 64 -22 64 C-22.09189302 56.41882578 -22.17151794 48.83958846 -22.21972656 41.25830078 C-22.23982563 38.68010912 -22.26710941 36.10196296 -22.30175781 33.52392578 C-22.35034847 29.81531539 -22.37298658 26.10730844 -22.390625 22.3984375 C-22.41127014 21.24822113 -22.43191528 20.09800476 -22.45318604 18.91293335 C-22.45494774 12.61147807 -22.27883437 8.76395187 -18 4 C-12.72867143 -1.00776214 -6.89190982 -0.92775709 0 0 Z " fill="#000000" transform="translate(182,352)"/>
<path d="M0 0 C4.96266267 2.30409338 7.44470704 5.20799086 10 10 C10.53308903 13.48547416 10.46683008 16.91068554 10.390625 20.4296875 C10.38496521 21.42001984 10.37930542 22.41035217 10.37347412 23.43069458 C10.35116674 26.57929775 10.30098002 29.72674349 10.25 32.875 C10.22992775 35.01560851 10.21167825 37.15623494 10.1953125 39.296875 C10.15132069 44.5316418 10.08446528 49.76573819 10 55 C6.58248347 56.13917218 3.96512063 56.11338481 0.36328125 56.09765625 C-0.93544922 56.09443359 -2.23417969 56.09121094 -3.57226562 56.08789062 C-4.94401108 56.07953531 -6.31575587 56.07107037 -7.6875 56.0625 C-9.07096195 56.05748335 -10.45442563 56.05292073 -11.83789062 56.04882812 C-15.22530395 56.03702529 -18.61263033 56.02056019 -22 56 C-22.10162708 49.55889398 -22.17156052 43.1179956 -22.21972656 36.67626953 C-22.23981107 34.48608676 -22.26708417 32.29595741 -22.30175781 30.10595703 C-22.35041409 26.95331624 -22.37300078 23.80138596 -22.390625 20.6484375 C-22.41127014 19.67321136 -22.43191528 18.69798523 -22.45318604 17.69320679 C-22.45507937 11.92464995 -21.90795786 8.55152673 -18 4 C-12.72867143 -1.00776214 -6.89190982 -0.92775709 0 0 Z " fill="#000000" transform="translate(398,360)"/>
<path d="M0 0 C4.96260931 2.30406861 7.45213051 5.2032661 10 10 C10.5350163 13.55779268 10.46664207 17.05757669 10.390625 20.6484375 C10.38496521 21.66096588 10.37930542 22.67349426 10.37347412 23.71670532 C10.35116254 26.93662677 10.30097472 30.1554174 10.25 33.375 C10.22992831 35.56378596 10.21167871 37.75258944 10.1953125 39.94140625 C10.15131505 45.29465378 10.08445518 50.64724608 10 56 C5.92489562 56.0247345 1.84982036 56.04287637 -2.2253418 56.05493164 C-3.61141725 56.05995777 -4.99748741 56.06677966 -6.38354492 56.07543945 C-8.37676715 56.08758018 -10.37002819 56.09271021 -12.36328125 56.09765625 C-13.56251221 56.10289307 -14.76174316 56.10812988 -15.99731445 56.11352539 C-19 56 -19 56 -22 55 C-22.10164192 48.7013125 -22.17156661 42.40283747 -22.21972656 36.10351562 C-22.23980888 33.96183366 -22.26708037 31.8202063 -22.30175781 29.67871094 C-22.35042398 26.59556585 -22.3730029 23.51314738 -22.390625 20.4296875 C-22.42159271 18.99965897 -22.42159271 18.99965897 -22.45318604 17.54074097 C-22.45510371 11.82511256 -21.85669574 8.51655641 -18 4 C-12.72867143 -1.00776214 -6.89190982 -0.92775709 0 0 Z " fill="#000000" transform="translate(142,360)"/>
<path d="M0 0 C4.96260931 2.30406861 7.45213051 5.2032661 10 10 C10.5350163 13.55779268 10.46664207 17.05757669 10.390625 20.6484375 C10.38496521 21.66096588 10.37930542 22.67349426 10.37347412 23.71670532 C10.35116254 26.93662677 10.30097472 30.1554174 10.25 33.375 C10.22992831 35.56378596 10.21167871 37.75258944 10.1953125 39.94140625 C10.15131464 45.29470361 10.08232215 50.64716036 10 56 C4.72 56 -0.56 56 -6 56 C-6.185625 52.3184375 -6.185625 52.3184375 -6.375 48.5625 C-7.08507138 34.82972079 -7.08507138 34.82972079 -14.48828125 23.59375 C-16.88592197 21.54712864 -19.37761317 19.74825789 -22 18 C-22.5467436 13.31362633 -22.49244673 10.98489346 -20.375 6.75 C-14.39418086 -0.17515901 -8.87174864 -1.19427385 0 0 Z " fill="#000000" transform="translate(318,360)"/>
<path d="M0 0 C4.88169605 2.26650174 7.59625754 5.19251507 10 10 C10.77686022 12.89873215 10.96521292 15.13308783 10 18 C8.15501467 19.85803947 6.22892654 21.20127594 4.0390625 22.6328125 C-0.19589417 25.47234283 -2.48293317 29.2154046 -4 34 C-4.93579638 38.78532238 -5.29437799 43.51873398 -5.5625 48.375 C-5.706875 50.89125 -5.85125 53.4075 -6 56 C-11.28 56 -16.56 56 -22 56 C-22.09906019 49.5588019 -22.17156012 43.11804966 -22.21972656 36.67626953 C-22.23981107 34.48608676 -22.26708417 32.29595741 -22.30175781 30.10595703 C-22.35041409 26.95331624 -22.37300078 23.80138596 -22.390625 20.6484375 C-22.41127014 19.67321136 -22.43191528 18.69798523 -22.45318604 17.69320679 C-22.45507937 11.92464995 -21.90795786 8.55152673 -18 4 C-12.72867143 -1.00776214 -6.89190982 -0.92775709 0 0 Z " fill="#000000" transform="translate(222,360)"/>
</svg>
