<svg width="24" height="25" viewBox="0 0 24 25" fill="none" xmlns="http://www.w3.org/2000/svg">
<path d="M11.9264 0C11.6866 0.00023915 11.4567 0.0955973 11.2871 0.265155C11.1176 0.434714 11.0222 0.66462 11.022 0.904411C11.0222 1.1442 11.1176 1.37411 11.2871 1.54367C11.4567 1.71322 11.6866 1.80858 11.9264 1.80882C17.6036 1.80882 22.1867 6.39199 22.1867 12.0692C22.1867 17.7464 17.6036 22.3296 11.9264 22.3296C11.6866 22.3298 11.4567 22.4252 11.2871 22.5947C11.1176 22.7643 11.0222 22.9942 11.022 23.234C11.0222 23.4738 11.1176 23.7037 11.2871 23.8733C11.4567 24.0428 11.6866 24.1382 11.9264 24.1384C18.5821 24.1384 24 18.7249 24 12.0692C24 5.41346 18.5821 0 11.9264 0Z" fill="white"/>
<path d="M8.66065 0.445143L8.63397 0.454036C8.62635 0.455459 8.61874 0.456978 8.61116 0.458596L8.34828 0.538808C8.34066 0.540231 8.33305 0.541749 8.32546 0.543367L8.06704 0.628017C8.0594 0.630879 8.05179 0.633841 8.04423 0.63691L7.78584 0.726014C7.77973 0.728911 7.77364 0.731874 7.76759 0.734907L7.50918 0.832922C7.50307 0.835819 7.49699 0.838782 7.49094 0.841815L7.23698 0.944285C7.23086 0.947182 7.22479 0.950145 7.21874 0.953178L6.96927 1.0601C6.96162 1.06297 6.95401 1.06593 6.94645 1.069L6.81734 1.13135C6.70933 1.18131 6.61224 1.25207 6.53161 1.33958C6.45098 1.42709 6.38838 1.52965 6.34741 1.64137C6.30645 1.75309 6.28792 1.8718 6.29287 1.99069C6.29782 2.10958 6.32616 2.22633 6.37627 2.33426C6.42661 2.44244 6.49785 2.5396 6.58587 2.62015C6.67389 2.7007 6.77697 2.76305 6.88918 2.80363C7.00138 2.8442 7.12049 2.86219 7.23968 2.85657C7.35886 2.85095 7.47575 2.82183 7.58363 2.77088L7.70386 2.71296L7.93106 2.61494L8.16271 2.52138L8.39885 2.43228L8.63496 2.34763L8.87555 2.27189L9.11615 2.19617H9.12982C9.24493 2.16511 9.35278 2.11161 9.44715 2.03876C9.54153 1.9659 9.62059 1.87513 9.67978 1.77163C9.73898 1.66814 9.77715 1.55397 9.7921 1.43568C9.80706 1.3174 9.7985 1.19733 9.76692 1.08236C9.70413 0.850874 9.55205 0.653768 9.34406 0.534318C9.13606 0.414867 8.88916 0.382838 8.65757 0.445265L8.66065 0.445143ZM4.25889 3.08264C4.13998 3.07802 4.02132 3.09689 3.90971 3.13817C3.7981 3.17945 3.69573 3.24234 3.60844 3.32322C3.60228 3.32906 3.59619 3.33499 3.59019 3.34101L3.39858 3.52812C3.39397 3.53256 3.38941 3.53706 3.3849 3.54159L3.19785 3.73315C3.19321 3.73903 3.18864 3.74495 3.18415 3.75094L3.00144 3.94699C2.9953 3.9514 2.98922 3.95588 2.9832 3.96044L2.80504 4.16092C2.8004 4.1668 2.79585 4.17272 2.79136 4.17871L2.61754 4.38365C2.61293 4.38809 2.60836 4.39257 2.60384 4.3971L2.43893 4.6065C2.43429 4.61237 2.42974 4.61831 2.42525 4.6243L2.30047 4.78469C2.22815 4.87915 2.17515 4.98693 2.14452 5.10188C2.11388 5.21684 2.10621 5.3367 2.12193 5.45463C2.13765 5.57255 2.17645 5.68622 2.23613 5.78913C2.29581 5.89205 2.37518 5.98221 2.46971 6.05443C2.56418 6.12675 2.67198 6.17973 2.78694 6.21036C2.9019 6.24099 3.02176 6.24866 3.13969 6.23293C3.25761 6.21721 3.37128 6.1784 3.47419 6.11872C3.57711 6.05903 3.66724 5.97965 3.73945 5.88511L3.85534 5.73363L4.0068 5.54206L4.16716 5.35496L4.33209 5.17228L4.497 4.98961L4.67082 4.81586L4.84009 4.65102C4.92755 4.56987 4.9981 4.47222 5.04771 4.36371C5.09731 4.25519 5.12498 4.13795 5.12912 4.0187C5.13325 3.89946 5.11376 3.78059 5.07179 3.6689C5.02982 3.55721 4.96619 3.45492 4.88455 3.36791C4.721 3.19368 4.4952 3.09119 4.25638 3.08278L4.25889 3.08264ZM1.61694 7.66261C1.50373 7.62595 1.38441 7.61198 1.26579 7.62148C1.14718 7.63099 1.03161 7.66378 0.925683 7.71799C0.819754 7.77219 0.725541 7.84674 0.64845 7.93739C0.57136 8.02803 0.512896 8.13298 0.476402 8.24624L0.40524 8.469C0.402099 8.47641 0.399045 8.48388 0.396103 8.49137L0.320382 8.75423C0.317241 8.76164 0.314205 8.76908 0.311263 8.77657L0.240084 9.04388C0.238469 9.05132 0.236951 9.05878 0.235524 9.06625L0.168695 9.33356C0.167081 9.34099 0.165545 9.34845 0.164118 9.35592L0.106183 9.62769C0.104569 9.63513 0.10305 9.64257 0.101623 9.65004L0.0482478 9.92181C0.0466332 9.92924 0.0451149 9.9367 0.0436881 9.94417L0.0124319 10.1313C-0.00721527 10.2486 -0.00354301 10.3686 0.0232219 10.4845C0.0499869 10.6004 0.0993187 10.7099 0.168417 10.8067C0.237515 10.9035 0.325013 10.9858 0.425915 11.0488C0.526817 11.1118 0.639144 11.1542 0.756472 11.1738C0.873783 11.1934 0.993828 11.1898 1.10972 11.163C1.22562 11.1363 1.33509 11.0869 1.43191 11.0178C1.52873 10.9487 1.61098 10.8612 1.67397 10.7603C1.73696 10.6594 1.77944 10.5471 1.79899 10.4298L1.83025 10.2516L1.87473 10.0021L1.93267 9.75258L1.9906 9.50309L2.05743 9.25805L2.12861 9.01747L2.19977 8.80362C2.23643 8.69041 2.25042 8.57108 2.24091 8.45247C2.23141 8.33386 2.19862 8.21827 2.14441 8.11234C2.09021 8.00641 2.01564 7.91222 1.92499 7.83513C1.83435 7.75804 1.7302 7.6991 1.61694 7.66261ZM0.761536 12.9911C0.64421 13.0106 0.531896 13.0531 0.430997 13.1161C0.330098 13.1791 0.242595 13.2613 0.173499 13.3581C0.104403 13.455 0.055067 13.5645 0.0283037 13.6803C0.00154032 13.7962 -0.00213408 13.9163 0.0175137 14.0336L0.0442102 14.194C0.045637 14.2014 0.0471553 14.2089 0.0487699 14.2163L0.102146 14.4881C0.103572 14.4956 0.105091 14.503 0.106705 14.5104L0.164658 14.7822C0.166085 14.7897 0.167603 14.7971 0.169218 14.8046L0.236046 15.0763C0.237506 15.0823 0.239025 15.0882 0.240606 15.0941L0.311785 15.3614C0.314727 15.3689 0.317763 15.3764 0.320904 15.3838L0.396643 15.6467C0.399585 15.6541 0.402622 15.6616 0.405762 15.669L0.486061 15.923C0.560681 16.1509 0.722691 16.3399 0.936526 16.4485C1.15036 16.5571 1.39855 16.5764 1.6266 16.5021C1.73986 16.4656 1.84479 16.4072 1.93544 16.3301C2.02608 16.253 2.10063 16.1588 2.15484 16.0529C2.20904 15.9469 2.24184 15.8314 2.25134 15.7127C2.26084 15.5941 2.24685 15.4748 2.2102 15.3616L2.12992 15.121L2.05874 14.8804L1.99191 14.6354L1.93397 14.3859L1.87602 14.1364L1.83154 13.8869L1.80486 13.7399C1.78582 13.6222 1.74371 13.5094 1.68095 13.408C1.61819 13.3066 1.53602 13.2186 1.43915 13.149C1.34228 13.0795 1.2326 13.0297 1.11646 13.0027C1.00031 12.9757 0.879168 12.9715 0.761536 12.9911ZM3.15845 17.9274C3.0401 17.9113 2.91973 17.9187 2.80427 17.9493C2.68881 17.9799 2.58054 18.0331 2.48571 18.1057C2.3915 18.1782 2.31251 18.2686 2.25324 18.3717C2.19396 18.4747 2.15557 18.5885 2.14025 18.7064C2.12494 18.8243 2.133 18.9441 2.16398 19.0588C2.19495 19.1736 2.24824 19.2812 2.3208 19.3754L2.42777 19.5135C2.43226 19.5195 2.43682 19.5254 2.44145 19.5313L2.60638 19.7407C2.6109 19.7453 2.61545 19.7497 2.62006 19.7542L2.79388 19.9591C2.79837 19.9651 2.80295 19.971 2.80758 19.9769L2.98572 20.1774C2.99172 20.1834 2.99781 20.1893 3.00398 20.1952L3.18669 20.3912C3.19121 20.3958 3.19576 20.4002 3.20037 20.4047L3.38742 20.5962C3.39191 20.6022 3.39646 20.6082 3.4011 20.614L3.59271 20.8012C3.59874 20.8057 3.60483 20.8102 3.61097 20.8146L3.63378 20.8324C3.80932 20.9959 4.04258 21.083 4.28233 21.0747C4.52208 21.0663 4.74869 20.9632 4.91243 20.7878C5.07594 20.6123 5.16309 20.3791 5.15475 20.1393C5.14641 19.8996 5.04326 19.6729 4.86795 19.5092L4.85427 19.4957L4.67611 19.322L4.50229 19.1482L4.33738 18.9656L4.17245 18.7829L4.01209 18.5958L3.86063 18.4042L3.75821 18.275C3.61297 18.0848 3.39832 17.9599 3.16121 17.9275L3.15845 17.9274ZM7.60922 21.3802C7.39179 21.2787 7.14296 21.2677 6.9174 21.3496C6.69185 21.4314 6.50801 21.5995 6.40631 21.8169C6.3048 22.0343 6.29378 22.2831 6.37564 22.5087C6.45751 22.7342 6.62557 22.9181 6.8429 23.0198L6.9499 23.0688C6.95746 23.0718 6.96505 23.0748 6.97269 23.0777L7.22219 23.1846C7.22824 23.1876 7.23431 23.1906 7.24043 23.1935L7.49439 23.2959C7.50044 23.299 7.50651 23.3019 7.51263 23.3048L7.77103 23.4028C7.77708 23.4059 7.78317 23.4088 7.78929 23.4117L8.04767 23.5008C8.05524 23.5039 8.06285 23.5069 8.07049 23.5097L8.32891 23.5944C8.33649 23.596 8.3441 23.5975 8.35173 23.599L8.6146 23.6792C8.62218 23.6808 8.62978 23.6823 8.6374 23.6837L8.69079 23.6972C8.92238 23.7596 9.16927 23.7276 9.37726 23.6081C9.58526 23.4887 9.73735 23.2916 9.80014 23.0601C9.86257 22.8285 9.83054 22.5816 9.71109 22.3736C9.59164 22.1656 9.39452 22.0135 9.16303 21.9507L9.1229 21.9418L8.8823 21.8661L8.64172 21.7904L8.40561 21.7057L8.16946 21.6166L7.93781 21.5231L7.71061 21.425L7.60922 21.3802Z" fill="white"/>
<path d="M5.872 17C5.664 17 5.5 16.944 5.38 16.832C5.268 16.712 5.212 16.552 5.212 16.352C5.212 16.144 5.268 15.988 5.38 15.884C5.5 15.78 5.664 15.728 5.872 15.728H7.216V9.836H7.96L6.196 10.904C6.044 10.992 5.9 11.028 5.764 11.012C5.636 10.988 5.524 10.932 5.428 10.844C5.34 10.748 5.28 10.636 5.248 10.508C5.216 10.38 5.224 10.252 5.272 10.124C5.328 9.988 5.432 9.876 5.584 9.788L7.24 8.792C7.4 8.696 7.56 8.616 7.72 8.552C7.88 8.48 8.028 8.444 8.164 8.444C8.332 8.444 8.472 8.492 8.584 8.588C8.696 8.676 8.752 8.824 8.752 9.032V15.728H9.976C10.184 15.728 10.344 15.78 10.456 15.884C10.576 15.988 10.636 16.144 10.636 16.352C10.636 16.56 10.576 16.72 10.456 16.832C10.344 16.944 10.184 17 9.976 17H5.872ZM12.4073 17.096C12.2073 17.096 12.0433 17.044 11.9153 16.94C11.7873 16.828 11.7113 16.692 11.6873 16.532C11.6713 16.364 11.7273 16.196 11.8553 16.028L14.6033 12.368V13.028L11.9873 9.524C11.8593 9.348 11.8033 9.18 11.8193 9.02C11.8353 8.852 11.9073 8.716 12.0353 8.612C12.1633 8.5 12.3233 8.444 12.5153 8.444C12.6753 8.444 12.8153 8.484 12.9353 8.564C13.0633 8.636 13.1913 8.76 13.3193 8.936L15.4793 11.912H14.9873L17.1353 8.936C17.2633 8.76 17.3873 8.636 17.5073 8.564C17.6353 8.484 17.7833 8.444 17.9513 8.444C18.1513 8.444 18.3153 8.496 18.4433 8.6C18.5713 8.704 18.6433 8.84 18.6593 9.008C18.6753 9.168 18.6153 9.34 18.4793 9.524L15.8633 13.028V12.368L18.5993 16.028C18.7273 16.196 18.7833 16.364 18.7673 16.532C18.7513 16.692 18.6793 16.828 18.5513 16.94C18.4233 17.044 18.2553 17.096 18.0473 17.096C17.8953 17.096 17.7553 17.056 17.6273 16.976C17.5073 16.896 17.3793 16.768 17.2433 16.592L14.9633 13.472H15.4913L13.2233 16.592C13.0953 16.768 12.9673 16.896 12.8393 16.976C12.7113 17.056 12.5673 17.096 12.4073 17.096Z" fill="white"/>
</svg>
