<svg width="20" height="18" viewBox="0 0 20 18" fill="none" xmlns="http://www.w3.org/2000/svg">
<path d="M3.712 0.00143977C1.78943 0.0554592 0 1.61136 0 3.72079V14.1742C0 16.9867 3.18057 18.8156 5.61749 17.4121L14.6871 12.1827C17.124 10.7792 17.124 7.11028 14.6871 5.70678L5.61749 0.484647C5.00826 0.133774 4.3529 -0.0165679 3.712 0.00143977Z" fill="white"/>
<path d="M18.229 0C17.7595 0.000425902 17.3093 0.17512 16.9772 0.485728C16.6452 0.796336 16.4585 1.21748 16.458 1.65675V16.0534C16.4585 16.4926 16.6452 16.9138 16.9772 17.2244C17.3093 17.535 17.7595 17.7097 18.229 17.7101C18.6986 17.7097 19.1488 17.535 19.4808 17.2244C19.8128 16.9138 19.9996 16.4926 20 16.0534V1.65675C19.9996 1.21749 19.8128 0.796335 19.4808 0.485728C19.1488 0.175121 18.6986 0.000436963 18.229 0Z" fill="white"/>
</svg>
