<svg width="20" height="18" viewBox="0 0 20 18" fill="none" xmlns="http://www.w3.org/2000/svg">
<path d="M16.288 17.8941C18.2106 17.84 20 16.2841 20 14.1747L20 3.72134C20 0.908766 16.8194 -0.920103 14.3825 0.483383L5.31293 5.71281C2.87602 7.11631 2.87602 10.7852 5.31293 12.1887L14.3825 17.4109C14.9917 17.7617 15.6471 17.9121 16.288 17.8941Z" fill="white"/>
<path d="M1.77098 17.8955C2.24054 17.8951 2.69073 17.7204 3.02277 17.4098C3.3548 17.0992 3.54153 16.678 3.54199 16.2388L3.54199 1.84213C3.54153 1.40286 3.3548 0.98171 3.02277 0.671102C2.69073 0.360493 2.24054 0.1858 1.77098 0.185373C1.30142 0.18581 0.851218 0.360494 0.519193 0.671102C0.187168 0.981708 0.000429165 1.40287 -3.34057e-05 1.84213L-3.46643e-05 16.2388C0.000427829 16.678 0.187167 17.0992 0.519192 17.4098C0.851217 17.7204 1.30142 17.8951 1.77098 17.8955Z" fill="white"/>
</svg>
