<svg width="26" height="22" viewBox="0 0 26 22" fill="none" xmlns="http://www.w3.org/2000/svg">
<path d="M15.7388 5.77934V5.78042C15.737 5.77987 15.7352 5.77985 15.7334 5.77985C15.7058 5.77985 15.6781 5.78366 15.651 5.79091C15.564 5.81418 15.4897 5.87109 15.4447 5.94919L15.117 6.51686C15.0719 6.59487 15.0597 6.68762 15.0831 6.77464C15.1064 6.86155 15.1634 6.93554 15.2413 6.9807C15.8417 7.32895 15.8447 7.33128 15.8447 7.33128C16.9047 8.07782 17.5989 9.30838 17.5989 10.704C17.5989 12.102 16.9043 13.3376 15.8414 14.0847L15.2411 14.4274C15.1632 14.4724 15.1063 14.5465 15.083 14.6334C15.0596 14.7205 15.0718 14.8132 15.1169 14.8912L15.4446 15.4589C15.4896 15.5369 15.5639 15.5939 15.6509 15.6172C15.6798 15.6249 15.7093 15.6287 15.7387 15.6287C15.7978 15.6287 15.8564 15.6133 15.9085 15.5832L16.4757 15.2551L16.5575 15.2016C17.985 14.2195 18.9147 12.5674 18.9147 10.704C18.9147 8.84543 17.9834 7.20428 16.5621 6.22179L16.3271 6.06873C16.2791 6.03852 16.2306 6.00961 16.1816 5.9814L15.9085 5.82484C15.8565 5.79479 15.7979 5.77934 15.7388 5.77934ZM17.372 2.95054V2.95161C17.3701 2.95103 17.3683 2.95104 17.3665 2.95104C17.3389 2.95104 17.3113 2.95482 17.2842 2.96207C17.1972 2.98537 17.123 3.04231 17.0779 3.12035L16.7502 3.68802C16.7051 3.76603 16.6929 3.85878 16.7163 3.94579C16.7396 4.03276 16.7965 4.10683 16.8745 4.15185L17.5079 4.51992C19.5273 5.83931 20.8654 8.11113 20.8654 10.704C20.8654 13.2981 19.53 15.5794 17.509 16.8995L16.8744 17.2562C16.7964 17.3012 16.7395 17.3753 16.7162 17.4622C16.6929 17.5493 16.705 17.6421 16.7501 17.7202L17.0779 18.2878C17.1229 18.3658 17.1971 18.4227 17.2842 18.446C17.313 18.4538 17.3425 18.4575 17.3719 18.4575C17.431 18.4575 17.4896 18.4421 17.5417 18.412C17.8998 18.2065 17.9197 18.1947 17.9197 18.1947L18.1624 18.0508C20.581 16.5024 22.1811 13.7886 22.1811 10.704C22.1811 7.6253 20.584 4.91959 18.1732 3.37022L18.0138 3.26837C17.9423 3.22396 17.8724 3.18494 17.7995 3.14311L17.5418 2.99603C17.4897 2.96597 17.4311 2.95054 17.372 2.95054ZM11.0481 2.33259H11.0474C10.3802 2.33259 9.77597 2.60245 9.33662 3.03823L6.85215 5.51942C2.86688 5.51982 2.84366 5.51989 2.84366 5.51989C1.5046 5.52427 0.419679 6.60752 0.412109 7.94596V13.5903C0.419679 14.858 1.5046 15.8841 2.84366 15.8882L6.85175 15.8897L9.33456 18.3683C9.77583 18.8065 10.3839 19.0776 11.0554 19.0776C12.4033 19.0776 13.4961 17.9848 13.4961 16.6368C13.4961 16.6315 13.4961 4.77469 13.4961 4.77121C13.4961 3.42322 12.4028 2.33259 11.0549 2.33259H11.0481ZM19.0755 0V0.00107603C19.0736 0.000492046 19.0718 0.000504388 19.07 0.000504388C19.0424 0.000504388 19.0148 0.00430552 18.9877 0.0115337C18.9007 0.0348378 18.8265 0.0917658 18.7814 0.169777L18.4537 0.737482C18.4086 0.815494 18.3964 0.90824 18.4198 0.995258C18.4431 1.08217 18.5 1.15628 18.578 1.20132L19.2197 1.57349C22.2504 3.48583 24.2724 6.85494 24.2724 10.704C24.2724 14.5539 22.2586 17.9333 19.2269 19.8464L18.5779 20.2068C18.4999 20.2518 18.443 20.3259 18.4197 20.4128C18.3964 20.4998 18.4086 20.5926 18.4536 20.6706L18.7814 21.2383C18.8265 21.3163 18.9006 21.3732 18.9877 21.3965C19.0165 21.4043 19.046 21.4081 19.0754 21.4081C19.1345 21.4081 19.1932 21.3926 19.2453 21.3626L19.5726 21.1758C19.6091 21.1544 19.6455 21.1329 19.6817 21.1113L19.8124 21.0345C19.8236 21.028 19.8436 21.017 19.8436 21.017C23.2922 18.8803 25.5881 15.0589 25.5881 10.704C25.5881 6.35734 23.2997 2.54522 19.8619 0.406638L19.776 0.351962C19.6803 0.292958 19.5844 0.238509 19.487 0.182689L19.2453 0.0454958C19.1932 0.0154373 19.1346 0 19.0755 0Z" fill="white"/>
</svg>
