<svg width="33" height="33" viewBox="0 0 33 33" fill="none" xmlns="http://www.w3.org/2000/svg">
<rect width="33" height="33" rx="8.46154" fill="#008001" fill-opacity="0.2"/>
<path d="M7 16C7 20.9626 11.0374 25 16 25C20.9626 25 25 20.9626 25 16C25 11.0374 20.9626 7 16 7C11.0374 7 7 11.0374 7 16ZM16.6941 14.5961C17.4682 14.5961 18.0981 15.2259 18.0981 16.0001C18.0981 16.7743 17.4683 17.4041 16.6941 17.4041C15.9199 17.4041 15.2901 16.7743 15.2901 16.0001C15.2901 15.2259 15.9199 14.5961 16.6941 14.5961ZM22.9177 16C22.9177 19.8145 19.8145 22.9177 16 22.9177C15.5191 22.9177 15.0495 22.8683 14.596 22.7744L14.596 18.7821C15.1802 19.2237 15.9069 19.4863 16.6941 19.4863C18.6164 19.4863 20.1803 17.9223 20.1803 16C20.1803 14.0777 18.6164 12.5137 16.6941 12.5137C15.907 12.5137 15.1802 12.7762 14.596 13.2179L14.596 9.22559C15.0495 9.13175 15.5191 9.08226 16 9.08226C19.8145 9.08226 22.9177 12.1855 22.9177 16Z" fill="#008001"/>
</svg>
