<svg width="16" height="19" viewBox="0 0 16 19" fill="none" xmlns="http://www.w3.org/2000/svg">
<path d="M14.4757 16.4678H0.759477C0.340576 16.4678 0 16.811 0 17.2272V18.2408C0 18.6597 0.343261 19.0002 0.759477 19.0002H14.4703C14.8892 19.0002 15.2297 18.657 15.2297 18.2408V17.2272C15.2379 16.8056 14.8946 16.4678 14.4757 16.4678Z" fill="#008001"/>
<path d="M7.42093 15.1081C7.5696 15.2568 7.76419 15.3324 7.95607 15.3324C8.15066 15.3324 8.34526 15.2568 8.4912 15.1081L13.6858 9.91351C13.9804 9.61894 13.9804 9.13786 13.6858 8.83784L12.9669 8.11892C12.6723 7.82431 12.1912 7.82431 11.8912 8.11892L9.22093 10.7919V0.759477C9.22093 0.340541 8.87767 0 8.46149 0H7.44796C7.02906 0 6.68848 0.33782 6.68848 0.759477V10.7946L4.01553 8.1216C3.72092 7.82703 3.23715 7.82703 2.93985 8.1216L2.22093 8.84052C1.92636 9.1351 1.92636 9.6189 2.22093 9.9162L7.42093 15.1081Z" fill="#008001"/>
</svg>
