<svg width="33" height="33" viewBox="0 0 33 33" fill="none" xmlns="http://www.w3.org/2000/svg">
<path d="M11.5553 8.00617C11.6145 8.00585 11.6145 8.00585 11.6749 8.00552C11.7577 8.00516 11.8405 8.00491 11.9234 8.00476C12.05 8.00439 12.1767 8.00321 12.3033 8.00202C12.3841 8.00177 12.4649 8.00157 12.5456 8.00142C12.5834 8.00095 12.6211 8.00048 12.6599 8C12.9907 8.00107 12.9907 8.00107 13.1398 8.12789C13.2283 8.26056 13.2349 8.31379 13.2158 8.46989C13.1449 8.5574 13.0883 8.60966 12.9878 8.65989C12.9286 8.66363 12.8692 8.66504 12.8099 8.66528C12.7728 8.66555 12.7357 8.66582 12.6974 8.66609C12.6368 8.66633 12.6368 8.66633 12.5749 8.66657C12.4885 8.66745 12.4022 8.66837 12.3158 8.66932C12.1803 8.67064 12.0448 8.67176 11.9092 8.67228C11.1308 8.67583 10.4165 8.72891 9.71248 9.08164C9.64685 9.11438 9.58034 9.14532 9.51379 9.17616C8.94625 9.4545 8.48507 9.94474 8.17608 10.491C8.15805 10.5227 8.14002 10.5543 8.12145 10.5869C7.75642 11.2402 7.62394 11.9227 7.62431 12.6662C7.62418 12.7038 7.62405 12.7414 7.62392 12.7802C7.62356 12.9035 7.62348 13.0268 7.62344 13.1501C7.62332 13.2367 7.62319 13.3233 7.62306 13.4099C7.62283 13.5912 7.62276 13.7724 7.62278 13.9536C7.62279 14.1844 7.62227 14.4151 7.62162 14.6458C7.62119 14.8247 7.62112 15.0035 7.62114 15.1824C7.62109 15.2674 7.62093 15.3523 7.62063 15.4373C7.61717 16.5322 7.76083 17.5123 8.45346 18.3963C8.69448 18.7104 8.68301 19.045 8.63816 19.42C8.59189 19.7616 8.5164 20.0875 8.4207 20.4185C8.31448 20.7919 8.22913 21.1134 8.39458 21.4825C8.51219 21.6883 8.6301 21.804 8.85295 21.8958C9.54556 22.0207 10.0581 21.6425 10.6053 21.2662C11.0097 20.9833 11.3946 20.6763 11.7654 20.3507C11.7889 20.3302 11.8124 20.3096 11.8366 20.2885C11.8803 20.2501 11.9238 20.2113 11.9669 20.1723C12.2104 19.9575 12.4694 19.8274 12.797 19.8266C12.8445 19.8264 12.892 19.8262 12.941 19.826C12.9937 19.826 13.0465 19.8259 13.0992 19.8259C13.1547 19.8257 13.2102 19.8255 13.2657 19.8253C13.3854 19.8249 13.5051 19.8246 13.6248 19.8243C13.8146 19.8239 14.0044 19.8231 14.1942 19.8223C14.7341 19.82 15.274 19.8179 15.8138 19.8166C16.1119 19.8159 16.4099 19.8148 16.708 19.8133C16.8654 19.8125 17.0229 19.8119 17.1804 19.8118C17.329 19.8117 17.4777 19.8111 17.6263 19.8101C17.6803 19.8099 17.7344 19.8098 17.7884 19.8099C18.9301 19.8122 19.8683 19.4247 20.6874 18.6337C21.3768 17.9183 21.7018 16.961 21.7009 15.9745C21.7011 15.9334 21.7014 15.8923 21.7016 15.85C21.7024 15.7155 21.7025 15.581 21.7026 15.4465C21.7028 15.3518 21.7031 15.2571 21.7034 15.1625C21.7038 14.9645 21.704 14.7664 21.7039 14.5684C21.7039 14.3166 21.7049 14.0649 21.7062 13.8132C21.7071 13.6177 21.7072 13.4222 21.7072 13.2267C21.7073 13.134 21.7076 13.0413 21.7082 12.9486C21.7153 11.7315 21.4611 10.6194 20.5878 9.72389C19.7342 8.89989 18.644 8.68031 17.4992 8.68345C17.3594 8.6838 17.2196 8.6834 17.0798 8.68281C16.6829 8.6813 16.286 8.68125 15.8891 8.68133C15.6452 8.68133 15.4014 8.68061 15.1575 8.67946C15.0199 8.67904 14.8823 8.67951 14.7447 8.67998C14.6606 8.67964 14.5765 8.67926 14.4924 8.67883C14.4543 8.6792 14.4161 8.67957 14.3768 8.67995C14.212 8.67824 14.1159 8.67544 13.972 8.58968C13.8787 8.48391 13.8618 8.42056 13.8618 8.27989C13.9247 8.13435 13.9826 8.07254 14.1278 8.01389C14.209 8.00433 14.209 8.00433 14.2981 8.00424C14.332 8.00403 14.3659 8.00381 14.4009 8.00359C14.4378 8.00374 14.4747 8.0039 14.5128 8.00406C14.5519 8.00392 14.591 8.00379 14.6314 8.00365C14.761 8.00332 14.8907 8.00354 15.0204 8.0038C15.1108 8.00375 15.2012 8.00367 15.2917 8.00358C15.4816 8.00346 15.6715 8.00363 15.8614 8.00398C16.1035 8.00441 16.3455 8.00417 16.5876 8.00371C16.7746 8.00343 16.9617 8.00352 17.1487 8.00372C17.2379 8.00377 17.327 8.00371 17.4162 8.00353C18.8893 8.00124 20.1068 8.35503 21.1777 9.39941C22.293 10.5773 22.3985 12.0235 22.3738 13.5619C22.409 13.5639 22.4441 13.5659 22.4803 13.568C23.4511 13.6296 24.2686 14.0188 24.9578 14.7019C24.9912 14.7348 25.0246 14.7677 25.0591 14.8016C25.7013 15.4697 26.044 16.3343 26.0388 17.2559C26.0384 17.3438 26.0396 17.4316 26.0408 17.5195C26.0408 17.5758 26.0408 17.6321 26.0407 17.6885C26.0411 17.7145 26.0415 17.7405 26.042 17.7674C26.0401 17.8934 26.0291 17.9602 25.953 18.0623C25.8314 18.1495 25.7496 18.1427 25.6038 18.1219C25.4987 18.0417 25.4571 17.9952 25.43 17.8646C25.4286 17.8247 25.4272 17.7848 25.4257 17.7437C25.4236 17.6993 25.4214 17.6548 25.4192 17.6091C25.4174 17.562 25.4157 17.5149 25.4138 17.4664C25.3635 16.5735 25.1241 15.8781 24.5398 15.1959C24.5037 15.1533 24.5037 15.1533 24.4668 15.1098C23.9229 14.5194 23.1442 14.2788 22.3738 14.1699C22.374 14.1941 22.3742 14.2183 22.3743 14.2432C22.376 14.4985 22.3772 14.7537 22.378 15.009C22.3784 15.1039 22.3789 15.1987 22.3796 15.2936C22.3883 16.5805 22.3883 16.5805 22.2218 17.2099C22.2859 17.209 22.2859 17.209 22.3514 17.2081C22.5104 17.206 22.6693 17.2047 22.8283 17.2036C22.8971 17.2031 22.9658 17.2023 23.0345 17.2013C23.1335 17.1999 23.2324 17.1993 23.3314 17.1988C23.3773 17.1979 23.3773 17.1979 23.4241 17.197C23.6001 17.1969 23.712 17.2112 23.8558 17.3239C23.9286 17.4198 23.932 17.4686 23.9295 17.5899C23.8823 17.7406 23.84 17.7752 23.7038 17.8559C23.57 17.8767 23.4381 17.8736 23.3029 17.8707C23.2644 17.8705 23.2258 17.8703 23.1861 17.8701C23.0634 17.8692 22.9407 17.8673 22.818 17.8654C22.7346 17.8646 22.6513 17.8639 22.5679 17.8633C22.3639 17.8616 22.1598 17.8591 21.9558 17.8559C21.9391 17.9083 21.9391 17.9083 21.922 17.9618C21.8736 18.1019 21.8076 18.2252 21.7326 18.3523C21.7204 18.3743 21.7083 18.3963 21.6958 18.419C21.5334 18.6944 21.3012 18.9178 21.0818 19.1479C21.1281 19.1475 21.1281 19.1475 21.1752 19.1471C21.4665 19.1448 21.7578 19.1431 22.0491 19.142C22.1988 19.1414 22.3485 19.1406 22.4982 19.1393C22.6429 19.138 22.7875 19.1374 22.9321 19.1371C22.9872 19.1369 23.0422 19.1365 23.0972 19.1358C23.6368 19.13 23.6368 19.13 23.8558 19.2619C23.9342 19.3566 23.932 19.4045 23.9295 19.5279C23.8831 19.6763 23.8358 19.7126 23.7038 19.7939C23.589 19.8074 23.4884 19.8123 23.3739 19.8098C23.341 19.8097 23.3082 19.8096 23.2744 19.8095C23.2031 19.8092 23.1319 19.8086 23.0608 19.8077C22.9476 19.8063 22.8344 19.8061 22.7212 19.8061C22.3994 19.806 22.0776 19.8042 21.7558 19.8011C21.5587 19.7992 21.3617 19.7989 21.1646 19.7994C21.0899 19.7993 21.0153 19.7986 20.9407 19.7974C20.5008 19.79 20.1742 19.8196 19.7984 20.0601C19.0479 20.5241 18.018 20.4576 17.1722 20.4591C17.0338 20.4595 16.8955 20.4605 16.7571 20.4614C16.4966 20.463 16.2361 20.4641 15.9756 20.465C15.6784 20.4661 15.3812 20.4677 15.0839 20.4694C14.4739 20.4729 13.8639 20.4757 13.2538 20.4779C13.2653 20.6057 13.2771 20.7335 13.2889 20.8613C13.2921 20.8973 13.2953 20.9332 13.2986 20.9703C13.372 21.7586 13.7387 22.5109 14.3558 23.0239C14.8895 23.4388 15.5574 23.7493 16.2448 23.7511C16.3083 23.7514 16.3083 23.7514 16.3731 23.7518C16.442 23.7518 16.442 23.7518 16.5122 23.7519C16.5871 23.7522 16.662 23.7525 16.7369 23.7528C16.8171 23.7531 16.8973 23.7533 16.9775 23.7535C17.145 23.7539 17.3126 23.7546 17.4801 23.7555C17.9565 23.7578 18.4329 23.7599 18.9092 23.7611C19.1726 23.7618 19.4359 23.7629 19.6992 23.7645C19.8384 23.7653 19.9775 23.7659 20.1167 23.766C20.272 23.7661 20.4273 23.767 20.5827 23.7681C20.6283 23.768 20.674 23.7678 20.7211 23.7677C21.0751 23.7712 21.3572 23.8168 21.6305 24.0546C21.6659 24.0851 21.7014 24.1155 21.7379 24.1468C21.8327 24.2317 21.9264 24.3176 22.02 24.4038C22.4309 24.7763 22.876 25.0771 23.3618 25.3419C23.4834 25.413 23.6046 25.4848 23.7256 25.5567C23.9174 25.6632 24.1035 25.6706 24.3152 25.631C24.5023 25.575 24.6035 25.4804 24.7212 25.3275C24.9009 24.9436 24.8073 24.619 24.699 24.2304C24.677 24.1486 24.6552 24.0667 24.6335 23.9849C24.6138 23.9109 24.5935 23.8372 24.5733 23.7634C24.4865 23.4219 24.4186 23.0363 24.6035 22.7184C24.6597 22.6352 24.7184 22.5541 24.7773 22.4729C25.2517 21.8068 25.4169 21.1011 25.4205 20.2918C25.4214 20.214 25.4223 20.1363 25.4233 20.0586C25.4246 19.9375 25.4257 19.8164 25.4262 19.6953C25.4268 19.5774 25.4283 19.4596 25.43 19.3418C25.4299 19.3055 25.4299 19.2692 25.4298 19.2319C25.4344 18.9828 25.4344 18.9828 25.5209 18.8591C25.6435 18.7804 25.7275 18.7856 25.8698 18.8059C25.9739 18.8853 26.0166 18.9304 26.0411 19.0603C26.0412 19.0995 26.0414 19.1386 26.0415 19.1789C26.042 19.2234 26.0425 19.268 26.0429 19.3139C26.0425 19.3861 26.0425 19.3861 26.042 19.4598C26.0422 19.5346 26.0422 19.5346 26.0425 19.6109C26.0427 19.7168 26.0424 19.8226 26.0416 19.9284C26.0408 20.0624 26.0413 20.1963 26.0422 20.3303C26.0427 20.4346 26.0426 20.5389 26.0422 20.6432C26.042 20.716 26.0425 20.7889 26.0429 20.8618C26.0355 21.5746 25.7676 22.1868 25.3874 22.7781C25.3724 22.8015 25.3573 22.8249 25.3418 22.849C25.2998 22.9099 25.2998 22.9099 25.2312 22.9823C25.0833 23.2415 25.2269 23.6165 25.2951 23.8836C25.3053 23.9252 25.3156 23.9667 25.3261 24.0095C25.3669 24.174 25.4087 24.337 25.4584 24.4991C25.5538 24.8654 25.5257 25.2766 25.3378 25.6079C25.0848 25.9561 24.7721 26.2172 24.3473 26.3139C23.4431 26.4439 22.5583 25.6377 21.879 25.1327C21.4607 24.8168 21.4607 24.8168 21.3269 24.6687C21.1802 24.5173 21.0713 24.4501 20.8589 24.4352C20.7715 24.4341 20.684 24.4345 20.5965 24.436C20.5485 24.4358 20.5005 24.4356 20.4511 24.4353C20.3471 24.4349 20.2433 24.4352 20.1393 24.4362C19.9744 24.4378 19.8095 24.4375 19.6446 24.437C19.3831 24.4364 19.1217 24.4371 18.8603 24.4383C18.3936 24.4404 17.9268 24.4407 17.4601 24.44C17.2968 24.4398 17.1335 24.4403 16.9702 24.4413C15.7265 24.4483 14.6381 24.2035 13.7253 23.3071C12.9553 22.5221 12.6528 21.5909 12.5698 20.5159C12.5418 20.5421 12.5137 20.5683 12.4848 20.5953C12.2295 20.8324 11.9693 21.0598 11.6958 21.2759C11.6725 21.2946 11.6491 21.3133 11.625 21.3326C11.2612 21.6234 10.8909 21.8783 10.4839 22.1049C10.4025 22.1507 10.3219 22.1978 10.2414 22.2453C9.76497 22.5247 9.33048 22.7092 8.76745 22.5655C8.35018 22.4211 7.9866 22.1374 7.76624 21.7522C7.49518 21.1683 7.66204 20.6217 7.82903 20.0345C7.98767 19.485 7.98767 19.485 8.00983 18.9199C7.95652 18.8302 7.90616 18.7576 7.8412 18.6776C7.40495 18.101 7.02021 17.3548 7.01598 16.6157C7.01565 16.573 7.01532 16.5303 7.01499 16.4863C7.01483 16.4398 7.01466 16.3933 7.0145 16.3454C7.01403 16.2715 7.01403 16.2715 7.01356 16.1961C7.01256 16.0328 7.01198 15.8695 7.01144 15.7062C7.01123 15.6497 7.01103 15.5932 7.01082 15.5367C7.01 15.3012 7.00929 15.0657 7.00886 14.8302C7.00825 14.4945 7.00699 14.1589 7.00482 13.8232C7.00334 13.5863 7.0026 13.3494 7.0024 13.1125C7.00227 12.9715 7.00182 12.8305 7.00058 12.6895C6.99412 11.923 7.03701 11.2322 7.3852 10.5338C7.40129 10.5008 7.41738 10.4679 7.43396 10.434C7.98461 9.34757 8.9826 8.57102 10.1268 8.19294C10.5947 8.04752 11.0679 8.00828 11.5553 8.00617Z" fill="#008000"/>
<path d="M15.0779 10.2178C15.3899 10.4935 15.6196 10.8339 15.66 11.2562C15.6628 11.3878 15.6613 11.5184 15.6574 11.6499C15.6567 11.6951 15.656 11.7404 15.6553 11.787C15.6536 11.8973 15.6511 12.0075 15.6479 12.1178C15.6795 12.1174 15.7111 12.1171 15.7437 12.1168C16.0428 12.1137 16.3418 12.1114 16.6409 12.1099C16.7947 12.1091 16.9484 12.108 17.1021 12.1063C17.2507 12.1047 17.3992 12.1038 17.5478 12.1034C17.6043 12.1031 17.6607 12.1025 17.7172 12.1017C18.0314 12.0973 18.2984 12.1035 18.5739 12.2698C18.599 12.2842 18.6242 12.2986 18.6501 12.3134C18.8617 12.4395 18.9805 12.644 19.0532 12.8761C19.1284 13.2733 19.0228 13.6104 18.8019 13.9418C18.8246 13.9669 18.8474 13.9919 18.8708 14.0178C19.0595 14.2766 19.1073 14.5363 19.0679 14.8538C18.9899 15.1563 18.8392 15.3932 18.5834 15.5734C18.4979 15.6138 18.4979 15.6138 18.4219 15.6138C18.4301 15.6345 18.4384 15.6552 18.4468 15.6766C18.5604 15.9842 18.5774 16.2462 18.4612 16.5564C18.3324 16.8297 18.1378 17.0057 17.8899 17.1718C17.8959 17.1936 17.902 17.2155 17.9082 17.238C17.9745 17.5264 17.9256 17.7914 17.7759 18.0458C17.575 18.2827 17.3303 18.4094 17.0216 18.4405C16.9704 18.4413 16.9192 18.4415 16.8679 18.4411C16.8397 18.4414 16.8114 18.4417 16.7822 18.4419C16.6897 18.4426 16.5971 18.4425 16.5045 18.4423C16.4395 18.4424 16.3745 18.4426 16.3095 18.4429C16.1735 18.4432 16.0376 18.4431 15.9016 18.4427C15.7283 18.4423 15.5551 18.4431 15.3819 18.4442C15.2476 18.4449 15.1134 18.4449 14.9792 18.4446C14.9154 18.4446 14.8516 18.4449 14.7877 18.4453C14.3871 18.4479 14.0336 18.4297 13.6847 18.21C13.6554 18.1935 13.6261 18.1769 13.5959 18.1598C13.5148 18.1827 13.5148 18.1827 13.4439 18.2358C13.3933 18.262 13.3426 18.2881 13.2919 18.3142C13.2668 18.3271 13.2418 18.3401 13.2159 18.3535C13.083 18.4135 12.9614 18.4307 12.8162 18.4325C12.7656 18.4332 12.7656 18.4332 12.7139 18.434C12.6777 18.4343 12.6414 18.4345 12.6041 18.4348C12.5475 18.4353 12.5475 18.4353 12.4899 18.4358C12.4101 18.4363 12.3303 18.4367 12.2505 18.437C12.1693 18.4374 12.0882 18.4382 12.0071 18.4393C11.8894 18.441 11.7717 18.4416 11.6541 18.442C11.6183 18.4426 11.5825 18.4433 11.5456 18.444C11.1444 18.4427 10.8518 18.3017 10.5636 18.0271C10.3433 17.7763 10.2477 17.4978 10.2466 17.1669C10.2464 17.1285 10.2461 17.0901 10.2459 17.0506C10.2459 17.0089 10.2458 16.9671 10.2458 16.9242C10.2455 16.8578 10.2455 16.8578 10.2452 16.79C10.2447 16.6436 10.2444 16.4972 10.2442 16.3508C10.244 16.2746 10.2439 16.1985 10.2437 16.1223C10.2433 15.9101 10.243 15.698 10.2428 15.4858C10.2427 15.2121 10.242 14.9385 10.2409 14.6649C10.2401 14.4529 10.2397 14.2409 10.2396 14.0288C10.2396 13.9024 10.2393 13.7761 10.2387 13.6497C10.238 13.5084 10.2381 13.3672 10.2384 13.226C10.2378 13.164 10.2378 13.164 10.2373 13.1007C10.2397 12.6571 10.345 12.3321 10.6585 12.0143C10.9615 11.7372 11.2823 11.6938 11.6796 11.6947C11.7145 11.6947 11.7494 11.6947 11.7853 11.6946C11.8588 11.6946 11.9323 11.6947 12.0059 11.6948C12.1185 11.695 12.2312 11.6948 12.3438 11.6946C12.4153 11.6946 12.4868 11.6947 12.5583 11.6947C12.6089 11.6946 12.6089 11.6946 12.6605 11.6945C12.7075 11.6947 12.7075 11.6947 12.7555 11.6949C12.783 11.6949 12.8105 11.6949 12.8389 11.695C12.9119 11.6998 12.9119 11.6998 13.0259 11.7378C13.0253 11.7085 13.0247 11.6792 13.0241 11.649C13.0217 11.5147 13.0202 11.3805 13.0188 11.2462C13.0178 11.2001 13.0169 11.154 13.0159 11.1065C13.0127 10.7131 13.0562 10.4233 13.3312 10.1314C13.8268 9.69595 14.5988 9.82975 15.0779 10.2178ZM13.7099 10.6358C13.6218 10.7702 13.6242 10.8881 13.6237 11.0464C13.6236 11.0724 13.6234 11.0983 13.6232 11.1251C13.6227 11.2122 13.6228 11.2992 13.6229 11.3862C13.6226 11.4487 13.6224 11.5111 13.6221 11.5735C13.6214 11.7431 13.6212 11.9127 13.6212 12.0823C13.6211 12.1883 13.621 12.2943 13.6208 12.4003C13.6201 12.7702 13.6198 13.1402 13.6198 13.5101C13.6199 13.8547 13.6191 14.1993 13.6179 14.5438C13.6169 14.8398 13.6165 15.1358 13.6165 15.4319C13.6165 15.6086 13.6163 15.7853 13.6155 15.962C13.6148 16.1283 13.6148 16.2946 13.6153 16.4609C13.6154 16.5218 13.6152 16.5827 13.6148 16.6436C13.6123 16.9944 13.6105 17.2765 13.8536 17.5527C13.8859 17.5781 13.8859 17.5781 13.9189 17.604C13.9512 17.6303 13.9512 17.6303 13.9842 17.6572C14.1515 17.7723 14.2861 17.7912 14.4874 17.7914C14.5157 17.7917 14.544 17.7921 14.5732 17.7924C14.6666 17.7933 14.76 17.7936 14.8535 17.7939C14.9185 17.7942 14.9835 17.7946 15.0485 17.7949C15.1847 17.7955 15.3209 17.7958 15.4572 17.7959C15.6317 17.7962 15.8062 17.7976 15.9808 17.7993C16.115 17.8005 16.2493 17.8007 16.3835 17.8008C16.4479 17.8009 16.5122 17.8014 16.5766 17.8022C16.6666 17.8032 16.7565 17.803 16.8465 17.8026C16.873 17.8031 16.8996 17.8037 16.927 17.8043C17.0666 17.8022 17.1204 17.789 17.2224 17.6906C17.2952 17.5673 17.3059 17.5026 17.2819 17.3618C17.1794 17.2058 17.0364 17.1712 16.8648 17.1228C16.7879 17.0958 16.7879 17.0958 16.7119 17.0198C16.6977 16.8892 16.6977 16.8892 16.7119 16.7538C16.8085 16.6539 16.9103 16.6068 17.0506 16.5964C17.0775 16.596 17.1043 16.5955 17.132 16.5951C17.1616 16.5942 17.1913 16.5933 17.2218 16.5924C17.2837 16.5907 17.3457 16.5895 17.4076 16.5888C17.5576 16.5835 17.6433 16.5751 17.7738 16.4956C17.8711 16.3912 17.9227 16.3201 17.935 16.1768C17.9215 16.014 17.9057 15.9364 17.7973 15.8085C17.6661 15.7153 17.5196 15.6794 17.3644 15.6432C17.2819 15.6138 17.2819 15.6138 17.2059 15.4998C17.2142 15.2688 17.2142 15.2688 17.2984 15.1697C17.451 15.0916 17.6045 15.1025 17.7735 15.1008C18.0802 15.1054 18.0802 15.1054 18.3459 14.9678C18.4329 14.8186 18.4398 14.6819 18.4219 14.5118C18.3449 14.371 18.2897 14.2969 18.1559 14.2078C18.0908 14.1912 18.0249 14.1771 17.9588 14.165C17.9245 14.1587 17.8903 14.1523 17.855 14.1457C17.8159 14.1388 17.8159 14.1388 17.7759 14.1318C17.7301 13.8264 17.7301 13.8264 17.7759 13.6758C17.8226 13.6667 17.8226 13.6667 17.8703 13.6575C18.1251 13.6075 18.1251 13.6075 18.334 13.4644C18.4192 13.3062 18.4343 13.213 18.4219 13.0298C18.358 12.8891 18.2888 12.804 18.1559 12.7258C18.0597 12.7148 17.9727 12.7103 17.8766 12.7112C17.8487 12.711 17.8208 12.7108 17.7921 12.7105C17.7316 12.7102 17.6712 12.7101 17.6108 12.7102C17.5151 12.7103 17.4195 12.7098 17.3238 12.7091C17.1206 12.7077 16.9174 12.7072 16.7143 12.7068C16.479 12.7063 16.2436 12.7055 16.0083 12.7037C15.9142 12.7032 15.82 12.7034 15.7259 12.7036C15.668 12.7032 15.6101 12.7028 15.5522 12.7024C15.5131 12.7028 15.5131 12.7028 15.4731 12.7031C15.3106 12.701 15.206 12.6755 15.0779 12.5738C15.0332 12.4396 15.0341 12.3176 15.0332 12.178C15.0323 12.1211 15.0314 12.0641 15.0305 12.0072C15.0292 11.9179 15.028 11.8286 15.0275 11.7393C15.0302 11.2025 15.0302 11.2025 14.7766 10.7452C14.4823 10.546 14.0186 10.3569 13.7099 10.6358ZM11 12.5548C10.9091 12.6896 10.8931 12.7898 10.8923 12.9486C10.892 12.9866 10.8918 13.0247 10.8915 13.064C10.8914 13.1057 10.8913 13.1475 10.8912 13.1905C10.8909 13.2345 10.8907 13.2785 10.8904 13.3238C10.8897 13.4698 10.8892 13.6158 10.8889 13.7617C10.8887 13.8115 10.8885 13.8614 10.8884 13.9127C10.8877 14.1492 10.8871 14.3858 10.8868 14.6223C10.8864 14.8949 10.8854 15.1675 10.8839 15.4401C10.8828 15.6511 10.8822 15.8621 10.8821 16.073C10.882 16.1989 10.8816 16.3248 10.8807 16.4506C10.8798 16.5913 10.8798 16.7319 10.8801 16.8725C10.8796 16.9139 10.8791 16.9552 10.8786 16.9978C10.8802 17.2396 10.9079 17.4273 11.0499 17.6278C11.2376 17.8041 11.4135 17.8021 11.6579 17.8C11.6942 17.8001 11.7304 17.8003 11.7678 17.8004C11.8442 17.8005 11.9205 17.8002 11.9969 17.7996C12.1135 17.7988 12.2301 17.7996 12.3467 17.8006C12.4211 17.8005 12.4955 17.8003 12.5699 17.8C12.6046 17.8003 12.6393 17.8006 12.675 17.8009C12.8918 17.7977 13.0099 17.7669 13.1779 17.6278C13.1699 17.6033 13.1618 17.5788 13.1536 17.5536C13.0678 17.2711 13.0471 17.0133 13.0475 16.7193C13.0469 16.6486 13.0469 16.6486 13.0463 16.5765C13.0454 16.4486 13.0449 16.3208 13.0447 16.1929C13.0443 16.0587 13.0433 15.9246 13.0424 15.7905C13.0407 15.5371 13.0397 15.2837 13.0388 15.0303C13.0377 14.7415 13.0361 14.4528 13.0344 14.164C13.0308 13.5706 13.0281 12.9772 13.0259 12.3838C12.9231 12.3495 12.8618 12.3407 12.7561 12.3397C12.7093 12.3391 12.7093 12.3391 12.6615 12.3386C12.6279 12.3384 12.5943 12.3382 12.5597 12.3381C12.5249 12.3378 12.4902 12.3376 12.4544 12.3374C12.3809 12.337 12.3074 12.3368 12.234 12.3367C12.1219 12.3363 12.0098 12.3351 11.8977 12.3339C11.8262 12.3337 11.7548 12.3335 11.6833 12.3333C11.6499 12.3328 11.6165 12.3324 11.5822 12.3319C11.3395 12.3328 11.1714 12.3695 11 12.5548Z" fill="#008000"/>
<path d="M16.816 21.0999C16.8601 21.0995 16.8601 21.0995 16.905 21.0991C17.0032 21.0984 17.1014 21.0991 17.1997 21.0998C17.2701 21.0996 17.3406 21.0993 17.4111 21.099C17.6024 21.0983 17.7937 21.0988 17.9851 21.0995C18.1853 21.1001 18.3855 21.0998 18.5856 21.0996C18.9218 21.0994 19.258 21.1 19.5942 21.1011C19.9829 21.1023 20.3717 21.1023 20.7604 21.1017C21.1343 21.1011 21.5081 21.1013 21.882 21.102C22.0412 21.1022 22.2003 21.1022 22.3595 21.1019C22.5469 21.1016 22.7342 21.1021 22.9216 21.1031C22.9904 21.1034 23.0592 21.1034 23.128 21.1031C23.2219 21.1028 23.3157 21.1034 23.4096 21.1042C23.4369 21.1039 23.4641 21.1036 23.4922 21.1033C23.6264 21.1055 23.7004 21.1216 23.8148 21.194C23.916 21.2988 23.9318 21.3589 23.9318 21.5038C23.8838 21.621 23.8492 21.6773 23.7364 21.7365C23.6026 21.7775 23.4778 21.7804 23.3394 21.7797C23.3106 21.7798 23.2819 21.78 23.2523 21.7801C23.1562 21.7805 23.0601 21.7804 22.9639 21.7802C22.895 21.7804 22.826 21.7806 22.757 21.7808C22.5697 21.7813 22.3825 21.7813 22.1952 21.7812C22.039 21.7812 21.8827 21.7814 21.7264 21.7816C21.3577 21.782 20.989 21.782 20.6204 21.7818C20.2399 21.7815 19.8595 21.782 19.4791 21.7828C19.1525 21.7835 18.8259 21.7837 18.4993 21.7836C18.3042 21.7835 18.1091 21.7836 17.914 21.7842C17.7306 21.7846 17.5472 21.7846 17.3638 21.7841C17.2965 21.784 17.2292 21.7841 17.1619 21.7844C17.07 21.7848 16.9781 21.7845 16.8863 21.784C16.8463 21.7844 16.8463 21.7844 16.8055 21.7848C16.6412 21.783 16.5382 21.7567 16.4078 21.6558C16.3187 21.5221 16.3098 21.4712 16.3318 21.3138C16.4744 21.1284 16.5917 21.0962 16.816 21.0999Z" fill="#008000"/>
<path d="M0 8.46154C0 3.78836 3.78836 0 8.46154 0H24.5385C29.2116 0 33 3.78836 33 8.46154V24.5385C33 29.2116 29.2116 33 24.5385 33H8.46154C3.78836 33 0 29.2116 0 24.5385V8.46154Z" fill="#008001" fill-opacity="0.2"/>
</svg>
