<svg width="33" height="33" viewBox="0 0 33 33" fill="none" xmlns="http://www.w3.org/2000/svg">
<path d="M22.5 21C22.5 15.2108 17.1421 15.6035 16.5 12C15.8579 15.6035 10.5 15.2108 10.5 21" stroke="#008000" stroke-width="1.5" stroke-linecap="round" stroke-linejoin="round"/>
<path d="M9.95455 8C8.59473 8 7.5 9.09473 7.5 10.4545V23.5455C7.5 24.9053 8.59473 26 9.95455 26H20.8846L25.5 21.3846V10.4545C25.5 9.09473 24.4053 8 23.0455 8H9.95455Z" stroke="#008000" stroke-width="1.5" stroke-linecap="round" stroke-linejoin="round"/>
<path d="M0 8.46154C0 3.78836 3.78836 0 8.46154 0H24.5385C29.2116 0 33 3.78836 33 8.46154V24.5385C33 29.2116 29.2116 33 24.5385 33H8.46154C3.78836 33 0 29.2116 0 24.5385V8.46154Z" fill="#008001" fill-opacity="0.2"/>
</svg>
