<svg width="33" height="33" viewBox="0 0 33 33" fill="none" xmlns="http://www.w3.org/2000/svg">
<rect width="33" height="33" rx="8.46154" fill="#008001" fill-opacity="0.2"/>
<g clip-path="url(#clip0_1280_1626)">
<path d="M15.9424 22.2413C15.7772 22.2413 15.612 22.1793 15.488 22.0761C15.2815 21.9109 15.1783 21.6424 15.2402 21.3739L16.2522 16.2109L15.6946 16.5207C15.3435 16.7065 14.9098 16.6033 14.7033 16.2522C14.5174 15.9011 14.6207 15.4674 14.9717 15.2609L16.8924 14.1663C17.1402 14.0217 17.45 14.0424 17.6772 14.2076C17.9043 14.3728 18.0076 14.662 17.9663 14.9304L16.913 20.3L17.7804 19.9283C18.1522 19.763 18.5652 19.9283 18.7304 20.3C18.8957 20.6717 18.7304 21.0848 18.3587 21.25L16.2315 22.1793C16.1489 22.2207 16.0457 22.2413 15.9424 22.2413ZM17.987 12.3696C18.1728 12.1837 18.2967 11.9152 18.2967 11.6467C18.2967 11.3783 18.1935 11.1098 17.987 10.9239C17.8011 10.738 17.5326 10.6141 17.2641 10.6141C16.9957 10.6141 16.7272 10.7174 16.5413 10.9239C16.3554 11.1098 16.2315 11.3783 16.2315 11.6467C16.2315 11.9152 16.3348 12.1837 16.5413 12.3696C16.7272 12.5554 16.9957 12.6793 17.2641 12.6793C17.5326 12.6793 17.8011 12.5761 17.987 12.3696ZM26 16.5C26 11.2543 21.7457 7 16.5 7C11.2543 7 7 11.2543 7 16.5C7 21.7457 11.2543 26 16.5 26C21.7457 26 26 21.7457 26 16.5ZM24.3478 16.5C24.3478 20.837 20.837 24.3478 16.5 24.3478C12.163 24.3478 8.65217 20.837 8.65217 16.5C8.65217 12.163 12.163 8.65217 16.5 8.65217C20.837 8.65217 24.3478 12.163 24.3478 16.5Z" fill="#008001"/>
</g>
<defs>
<clipPath id="clip0_1280_1626">
<rect width="19" height="19" fill="white" transform="translate(7 7)"/>
</clipPath>
</defs>
</svg>
