<svg width="33" height="33" viewBox="0 0 33 33" fill="none" xmlns="http://www.w3.org/2000/svg">
<rect width="33" height="33" rx="8.46154" fill="#008001" fill-opacity="0.2"/>
<path fill-rule="evenodd" clip-rule="evenodd" d="M16.0936 8.55943L16.8789 8.56323C16.863 8.45159 16.8104 8.35073 16.7336 8.27397L16.7347 8.27291C16.4349 7.97477 15.9253 8.14943 15.8686 8.56323L16.0936 8.55943ZM16.3737 24.8751C16.8603 24.8751 17.2957 24.6285 17.557 24.242H15.1905C15.4518 24.6285 15.8872 24.8751 16.3737 24.8751ZM18.0844 25.3361C16.678 26.6134 14.4595 25.951 13.9317 24.1744C12.0921 24.0386 7.46875 23.4962 7.46875 21.6604C7.46875 20.5753 8.80511 20.3327 9.04257 19.9629C9.10389 19.8675 9.1373 19.7502 9.1373 19.6206V15.5155C9.1373 12.1778 11.5288 9.33249 14.7386 8.69285C14.7386 7.0778 16.6 6.50033 17.5278 7.47955L17.5289 7.4785C17.8571 7.80667 18.0087 8.20525 18.0087 8.69306C21.2185 9.33291 23.61 12.178 23.61 15.5157V19.6206C23.61 20.2708 24.2447 20.1596 24.8628 20.7668C25.1343 21.0335 25.2783 21.3323 25.2783 21.6606C25.2783 23.4964 20.655 24.0388 18.8154 24.1746C18.6811 24.6271 18.4244 25.0273 18.0844 25.3361Z" fill="#008001"/>
</svg>
