<svg width="33" height="33" viewBox="0 0 33 33" fill="none" xmlns="http://www.w3.org/2000/svg">
<rect width="33" height="33" rx="8.46154" fill="#008001" fill-opacity="0.2"/>
<path d="M16.8179 15.7974C19.2584 15.7974 21.2201 13.8304 21.2201 11.4004C21.2201 8.97045 19.2584 7 16.8179 7C14.3897 7 12.4263 8.97045 12.4263 11.4004C12.4263 13.8304 14.3897 15.7974 16.8179 15.7974Z" fill="#008001"/>
<path d="M20.3487 16.5146H13.2921C12.0303 16.5146 11 17.6704 11 19.0931V26.1727C11 26.2488 11.0371 26.3212 11.0442 26.4043H22.5985C22.6038 26.3212 22.6374 26.2488 22.6374 26.1727V19.0931C22.6409 17.6704 21.6088 16.5146 20.3487 16.5146Z" fill="#008001"/>
</svg>
