<svg width="33" height="33" viewBox="0 0 33 33" fill="none" xmlns="http://www.w3.org/2000/svg">
<rect width="33" height="33" rx="8.46154" fill="#008001" fill-opacity="0.2"/>
<path d="M16.362 11.5208C17.6097 10.0909 18.7452 8.95544 18.2125 8.38064C17.6797 7.80584 9.05634 11.0073 9.54304 11.8432C9.83309 12.3414 17.5373 17.9325 18.2972 18.3821C19.19 18.9104 20.6236 18.2918 20.4975 17.3105C20.3713 16.3292 19.3339 8.30469 19.3339 8.30469C19.3339 8.30469 19.9227 9.09559 20.105 9.64229" stroke="#008001" stroke-width="0.7" stroke-linecap="round" stroke-linejoin="round"/>
<path d="M22.292 18.0039C22.1658 17.0226 21.1284 8.99805 21.1284 8.99805C21.1284 8.99805 21.7172 9.78895 21.8995 10.3356" stroke="#008001" stroke-width="0.7" stroke-linecap="round" stroke-linejoin="round"/>
<path d="M18.9416 21.6849C18.9416 18.5761 17.897 11.6797 17.897 11.6797C17.897 11.6797 18.4858 12.4706 18.668 13.0173" stroke="#008001" stroke-width="0.7" stroke-linecap="round" stroke-linejoin="round"/>
<path d="M15.7856 12.0231C15.6033 11.4764 15.0145 10.6855 15.0145 10.6855C15.0145 10.6855 15.3109 14.2895 17.0352 15.0045C12.412 12.765 10.2116 20.0933 8.21391 17.9484C6.78856 16.418 9.34941 14.2685 9.34941 14.2685" stroke="#008001" stroke-width="0.7" stroke-linecap="round" stroke-linejoin="round"/>
<path d="M23.7078 11.7653C23.5256 11.2186 22.9368 10.4277 22.9368 10.4277C22.9368 10.4277 23.9499 19.3752 24.1657 21.6847C24.2686 22.7852 22.2288 23.2899 21.4718 21.4394C20.7148 19.5889 21.4087 19.0632 21.8714 19.0632C22.334 19.0632 23.091 20.6053 21.8714 21.3202C20.6517 22.0352 18.619 22.5539 18.0022 23.2688C17.3854 23.9838 16.306 25.624 15.591 25.624C14.8761 25.624 13.4742 24.8529 15.0723 21.6847" stroke="#008001" stroke-width="0.7" stroke-linecap="round" stroke-linejoin="round"/>
<path d="M25.4742 20.3251C25.3481 18.6849 24.4929 12.04 24.4929 12.04C24.4929 12.04 25.0817 12.8309 25.264 13.3776" stroke="#008001" stroke-width="0.7" stroke-linecap="round" stroke-linejoin="round"/>
<path d="M11.7466 9.22217C12.6087 8.68597 14.3856 8.34952 15.3108 7.62402" stroke="#008001" stroke-width="0.7" stroke-linecap="round" stroke-linejoin="round"/>
<path d="M9.24057 18.347C8.09102 19.6102 8.41347 22.1756 9.75927 21.7551C10.2618 21.598 10.8669 20.5527 11.8761 20.1009C13.5694 19.3428 15.7353 18.9562 15.605 17.7457C15.4368 16.1826 13.9368 15.2734 13.9368 15.2734" stroke="#008001" stroke-width="0.7" stroke-linecap="round" stroke-linejoin="round"/>
<path d="M17.6588 19.2598C16.9404 18.9426 16.7056 18.5762 16.7056 18.5762C17.2874 19.8766 17.7359 20.6686 17.75 21.2925C17.764 21.9163 14.5467 23.9105 13.1659 23.9105C11.5572 23.9105 10.3805 22.7546 10.8374 20.8355" stroke="#008001" stroke-width="0.7" stroke-linecap="round" stroke-linejoin="round"/>
<path d="M9.81758 12.1172C8.76053 12.6073 8.10503 14.9256 8.91118 14.6917" stroke="#008001" stroke-width="0.7" stroke-linecap="round" stroke-linejoin="round"/>
<path d="M16.75 27.5C22.6871 27.5 27.5 22.6871 27.5 16.75C27.5 10.8129 22.6871 6 16.75 6C10.8129 6 6 10.8129 6 16.75C6 22.6871 10.8129 27.5 16.75 27.5Z" stroke="#008001" stroke-width="0.7" stroke-linecap="round" stroke-linejoin="round"/>
</svg>
