<svg width="33" height="33" viewBox="0 0 33 33" fill="none" xmlns="http://www.w3.org/2000/svg">
<rect width="33" height="33" rx="8.46154" fill="#008001" fill-opacity="0.2"/>
<path d="M7.02724 13.5747C7.44177 12.2982 8.12462 11.1265 9.02564 10.1335C9.17799 9.96556 9.41702 9.90571 9.63103 9.98191L11.7843 10.7485C12.368 10.9562 13.0104 10.6534 13.219 10.0721C13.2395 10.015 13.2553 9.95626 13.2662 9.89665L13.6764 7.65464C13.7172 7.43173 13.8892 7.2554 14.1118 7.20821C14.763 7.0702 15.4307 7 16.1072 7C16.7833 7 17.4506 7.07012 18.1015 7.20796C18.324 7.2551 18.4959 7.43132 18.5368 7.65415L18.9482 9.89655C19.0594 10.5038 19.6439 10.9063 20.2538 10.7956C20.3139 10.7847 20.3728 10.7689 20.4301 10.7485L22.5834 9.98191C22.7974 9.90571 23.0364 9.96556 23.1887 10.1335C24.0898 11.1265 24.7726 12.2982 25.1872 13.5747C25.2571 13.7901 25.1896 14.0262 25.0163 14.1726L23.2711 15.648C22.7986 16.0476 22.7408 16.7529 23.142 17.2234C23.1814 17.2697 23.2247 17.3127 23.2711 17.3519L25.0163 18.8273C25.1896 18.9738 25.2571 19.2099 25.1872 19.4253C24.7726 20.7018 24.0898 21.8736 23.1887 22.8665C23.0364 23.0344 22.7974 23.0942 22.5834 23.0181L20.4301 22.2515C19.8465 22.0438 19.204 22.3467 18.9954 22.9278C18.9749 22.985 18.9591 23.0437 18.9482 23.1036L18.5368 25.3459C18.4959 25.5687 18.324 25.7448 18.1015 25.792C17.4506 25.9298 16.7833 26 16.1072 26C15.4307 26 14.763 25.9298 14.1118 25.7917C13.8892 25.7445 13.7172 25.5682 13.6764 25.3454L13.2662 23.1034C13.155 22.4962 12.5705 22.0937 11.9606 22.2044C11.9006 22.2154 11.8417 22.231 11.7844 22.2515L9.63103 23.0181C9.41702 23.0942 9.17799 23.0344 9.02564 22.8665C8.12462 21.8736 7.44177 20.7018 7.02724 19.4253C6.95732 19.2099 7.02474 18.9738 7.19803 18.8273L8.94329 17.3519C9.41584 16.9524 9.47363 16.2471 9.07239 15.7766C9.03294 15.7303 8.98976 15.6873 8.94331 15.6481L7.19803 14.1726C7.02474 14.0262 6.95732 13.7901 7.02724 13.5747ZM13.3353 16.4999C13.3353 18.0307 14.5762 19.2717 16.107 19.2717C17.6378 19.2717 18.8788 18.0307 18.8788 16.4999C18.8788 14.9691 17.6378 13.7281 16.107 13.7281C14.5762 13.7281 13.3353 14.9691 13.3353 16.4999Z" fill="#008001"/>
</svg>
