<svg width="33" height="33" viewBox="0 0 33 33" fill="none" xmlns="http://www.w3.org/2000/svg">
<rect width="33" height="33" rx="8.46154" fill="#008001" fill-opacity="0.2"/>
<path d="M24.8844 14.2233C25.4238 14.2233 25.8661 14.6387 25.909 15.167L25.9124 15.2513V23.6222C25.9124 25.4443 24.4697 26.9295 22.6642 26.9976L22.5346 27H11.0797C9.25756 27 7.77243 25.5572 7.70434 23.7518L7.7019 23.6222V15.2513C7.7019 14.6835 8.16216 14.2233 8.72992 14.2233C9.26928 14.2233 9.71163 14.6387 9.75452 15.167L9.75793 15.2513V23.6222C9.75793 24.3218 10.3014 24.8944 10.9892 24.9409L11.0797 24.944H22.5346C23.2342 24.944 23.8068 24.4005 23.8533 23.7127L23.8564 23.6222V15.2513C23.8564 14.6835 24.3166 14.2233 24.8844 14.2233ZM16.5128 6.00968L16.6002 6.00093L16.7029 6L16.7936 6.00764L16.8982 6.02659L16.9387 6.03732C17.0534 6.06899 17.1637 6.12124 17.2638 6.19377L17.334 6.24959L17.3886 6.30027L21.9578 10.8695C22.3593 11.2709 22.3593 11.9218 21.9578 12.3233C21.5799 12.7011 20.9811 12.7234 20.5773 12.39L20.504 12.3233L17.6883 9.50734V20.8319C17.6883 21.3713 17.2729 21.8136 16.7446 21.8565L16.6603 21.8599C16.1209 21.8599 15.6786 21.4446 15.6357 20.9162L15.6323 20.8319V9.50969L12.8194 12.3233C12.4416 12.7011 11.8428 12.7234 11.4389 12.39L11.3656 12.3233C10.9878 11.9454 10.9655 11.3466 11.2989 10.9428L11.3656 10.8695L15.9194 6.3145C15.9522 6.28039 15.9874 6.24854 16.0246 6.21921L16.0912 6.17176C16.1134 6.15616 16.1365 6.142 16.1603 6.12874L16.1713 6.12335C16.2754 6.06627 16.3906 6.02723 16.5128 6.00968Z" fill="#008001"/>
</svg>
