<svg width="33" height="33" viewBox="0 0 33 33" fill="none" xmlns="http://www.w3.org/2000/svg">
<rect width="33" height="33" rx="8.46154" fill="#008001" fill-opacity="0.2"/>
<path fill-rule="evenodd" clip-rule="evenodd" d="M9.2 13.3968V22.5C9.2 23.2956 9.5162 24.0588 10.0784 24.6216C10.6412 25.1838 11.4044 25.5 12.2 25.5C14.8634 25.5 19.1366 25.5 21.8 25.5C22.5956 25.5 23.3588 25.1838 23.9216 24.6216C24.4838 24.0588 24.8 23.2956 24.8 22.5V13.3968C24.6092 13.4646 24.4064 13.5 24.2 13.5C21.1076 13.5 12.8924 13.5 9.8 13.5C9.5936 13.5 9.3908 13.4646 9.2 13.3968ZM14 18.3C13.3376 18.3 12.8 17.7624 12.8 17.1C12.8 16.4376 13.3376 15.9 14 15.9H20C20.6624 15.9 21.2 16.4376 21.2 17.1C21.2 17.7624 20.6624 18.3 20 18.3H14ZM26 9.3C26 8.8224 25.8104 8.3646 25.4726 8.0274C25.1354 7.6896 24.6776 7.5 24.2 7.5C21.1076 7.5 12.8924 7.5 9.8 7.5C9.3224 7.5 8.8646 7.6896 8.5274 8.0274C8.1896 8.3646 8 8.8224 8 9.3V11.1C8 11.5776 8.1896 12.0354 8.5274 12.3726C8.8646 12.7104 9.3224 12.9 9.8 12.9C12.8924 12.9 21.1076 12.9 24.2 12.9C24.6776 12.9 25.1354 12.7104 25.4726 12.3726C25.8104 12.0354 26 11.5776 26 11.1V9.3Z" fill="#008001"/>
</svg>
