<svg width="33" height="33" viewBox="0 0 33 33" fill="none" xmlns="http://www.w3.org/2000/svg">
<rect width="33" height="33" rx="8.46154" fill="#008001" fill-opacity="0.2"/>
<path fill-rule="evenodd" clip-rule="evenodd" d="M10.5457 20.6239C10.7523 20.4134 10.961 20.2277 11.15 20.0721C11.3322 20.2225 11.5329 20.4041 11.7313 20.6113C12.3982 21.308 12.8462 22.0881 12.8462 22.8269C12.8462 23.8387 12.0474 24.6154 11.1154 24.6154C10.1834 24.6154 9.38461 23.8387 9.38461 22.8269C9.38461 22.1118 9.84486 21.3378 10.5457 20.6239ZM8 22.8269C8 20.2885 11.1154 18.3846 11.1154 18.3846C11.2711 18.3846 14.2308 20.2885 14.2308 22.8269C14.2308 24.5794 12.836 26 11.1154 26C9.39477 26 8 24.5794 8 22.8269ZM24.6154 19.7692C24.6154 18.6222 23.6855 17.6923 22.5385 17.6923H11.4615C9.54975 17.6923 8 16.1426 8 14.2308C8 12.319 9.54975 10.7692 11.4615 10.7692H19.0769V12.1538H11.4615C10.3145 12.1538 9.38461 13.0838 9.38461 14.2308C9.38461 15.3778 10.3145 16.3077 11.4615 16.3077H22.5385C24.4502 16.3077 26 17.8574 26 19.7692C26 21.681 24.4502 23.2308 22.5385 23.2308H14.9231V21.8462H22.5385C23.6855 21.8462 24.6154 20.9163 24.6154 19.7692ZM22.3149 10.2393C22.5216 10.0288 22.7301 9.84311 22.9192 9.68748C23.1014 9.83785 23.3021 10.0194 23.5005 10.2267C24.1674 10.9234 24.6154 11.7035 24.6154 12.4423C24.6154 13.4541 23.8167 14.2308 22.8846 14.2308C21.9526 14.2308 21.1538 13.4541 21.1538 12.4423C21.1538 11.7271 21.614 10.9531 22.3149 10.2393ZM19.7692 12.4423C19.7692 9.90385 22.8846 8 22.8846 8C23.0404 8 26 9.90385 26 12.4423C26 14.1948 24.6052 15.6154 22.8846 15.6154C21.164 15.6154 19.7692 14.1948 19.7692 12.4423ZM21.8462 12.5C21.8462 11.9265 22.3111 11.4615 22.8846 11.4615C23.4581 11.4615 23.9231 11.9265 23.9231 12.5C23.9231 13.0735 23.4581 13.5385 22.8846 13.5385C22.3111 13.5385 21.8462 13.0735 21.8462 12.5ZM11.1154 21.8462C10.5419 21.8462 10.0769 22.3111 10.0769 22.8846C10.0769 23.4581 10.5419 23.9231 11.1154 23.9231C11.6889 23.9231 12.1538 23.4581 12.1538 22.8846C12.1538 22.3111 11.6889 21.8462 11.1154 21.8462Z" fill="#008001"/>
</svg>
