<svg width="33" height="33" viewBox="0 0 33 33" fill="none" xmlns="http://www.w3.org/2000/svg">
<rect width="33" height="33" rx="8.46154" fill="#008001" fill-opacity="0.2"/>
<path d="M17.1636 10C11.8708 10 7.14046 12.8102 4 17.223C7.14046 21.636 11.8708 24.446 17.1636 24.446C22.4561 24.446 27.1867 21.636 30.3272 17.223C27.1867 12.8102 22.4561 10 17.1636 10ZM17.1639 21.9494C14.5536 21.9494 12.4372 19.8336 12.4372 17.223C12.4372 14.6124 14.5536 12.4966 17.1639 12.4966C19.7742 12.4966 21.8894 14.6124 21.8894 17.223C21.8894 19.8336 19.7742 21.9494 17.1639 21.9494ZM17.1636 13.8798C15.3173 13.8798 13.8204 15.3767 13.8204 17.223C13.8204 19.0695 15.3173 20.5662 17.1636 20.5662C19.0101 20.5662 20.5068 19.0695 20.5068 17.223C20.5068 15.3767 19.0101 13.8798 17.1636 13.8798Z" fill="#008001"/>
</svg>
